<svg xmlns="http://www.w3.org/2000/svg" viewBox="0 0 24 24" fill="currentColor">
  <path d="M18.576 12c0 2.255-1.697 3.824-4.544 3.824h-1.139v-7.62h1.162c2.78 0 4.52 1.54 4.52 3.796zM12.762 6.045H9.597V18h3.165c4.125 0 6.732-2.461 6.732-6.018 0-3.35-2.607-5.937-6.732-5.937zM8.52 14.656c-1.417 0-2.304-.855-2.304-2.183 0-1.375.887-2.23 2.305-2.23.326 0 .593.035.887.116v-.83c0-.728-.4-.99-1.162-.99-.651 0-1.126.116-1.66.28L6.18 6.755c.7-.232 1.626-.71 2.672-.71 2.067 0 3.259 1.091 3.259 2.924v4.855H8.52zm0-3.143c-.185-.08-.383-.115-.63-.115-.56 0-.933.28-.933.82 0 .524.32.81.86.81h.703v-1.515zM2.45 6.045H6.25v1.78L2.45 13.01v1.375h4.705V12.18H5.552l3.026-4.156V6.045H2.45z" fill="#004893"/>
</svg>
