<svg xmlns="http://www.w3.org/2000/svg" viewBox="0 0 284.4 142.2" fill="currentColor">
  <path d="M142.2 0C130.3 0 119 2.1 109 5.8c-3.8 1.9-4.4 5.9-4.8 8.9 1.7 12.7 3.8 25.4 5.5 38.1.5 5.3 7.4 7.6 11.4 4.4 8.4-5.7 16.8-11.5 25.2-17.3 4.2-3.1 4.9-8.3 2.5-12.7-2.3-9.1-4.5-18.2-6.6-27.2M239.5 24.2c-9.1-7.2-20.2-11.7-31.7-14.9-4.1-.7-7.8 2.1-9.5 5.8-4.8 13.2-9.6 26.5-14.5 39.7-1.6 5.7 3.8 11.1 9.6 10.1 10-1.6 20-3.2 30-4.8 4.7-1.1 7.6-5 8.1-9.5.3-8.3 2-16.8 8-23.2 0-.5-.4-.8-.7-1.1-9.3-.6-18.7-1.2-28-1.8-3-.1-5.8 2.4-5.7 5.7.1 3.2 2.9 5.6 5.9 5.7 6.5.4 13.1.9 19.6 1.3.3 0 .8.1.9.5-2.8 3.2-3.3 8-3.6 12.2v.3c-8.9 1.4-17.8 2.9-26.7 4.3-.3.1-.9 0-.9-.4 4.3-11.9 8.6-23.7 12.9-35.6.1-.4.6-.4.9-.3 10.2 2.9 20.1 7.4 28 14.5-1.2 8.5-2.3 17-3.5 25.6-1.8 9.6-2.8 19.5-6.1 28.7 4 4.3 8.8 7.9 13.9 10.6 2.8-8 3.9-16.5 5-24.9 1.7-12.1 3.4-24.2 5-36.3.4-4.1-2.2-8.1-5.8-10.2M40.5 49.9c9.8-2.8 19.7-5.6 29.5-8.4 4.9-1.6 6.8-7.4 4.8-11.7-5.1-11.7-10.3-23.4-15.4-35.1C57.7-.5 52.9-.8 50.3 3.9 43.9 15 37.5 26.1 31.1 37.2c-2.9 5.2.8 11.7 6.7 12.4.9.1 1.8.2 2.7.3M75.7 67.3c-11.1-.9-22.3-1.8-33.4-2.7-4.4-.1-7.8 3.3-8.3 7.5-1.4 15.6.8 31.5 7.3 45.8 2.4 4.8 9.3 5.3 12.9 1.6 9.7-9.7 19.4-19.3 29.1-29 4.4-4.7 2.4-12.1-3.5-14.7-1.4-2.9-2.7-5.5-4.1-8.5.1-.1.1 0 0 0m71.2 27c-4.8-5.2-12.9-5.1-19.5-3.5-5.8 1.9-11.7 4.4-15.3 9.7-3.3 5.4-4.3 12.2-2.3 18.2 1.9 5.3 6.5 9.2 11.7 11.3 6.3 2.3 13.3 2.5 19.8 1.2 4-.9 7.6-3.3 9.6-7 .7-1.4 1.1-3 .9-4.6-.2-1.5-1.4-2.6-2.9-2.7-1.5-.1-2.6 1.1-3.1 2.4-.5 1.8-1.9 3.1-3.5 3.9-3.5 1.5-7.5 1.8-11.2 1.3-3.5-.6-7.2-2.1-9.1-5.3-2.1-3.6-1.5-8.2 1-11.5 2.3-3.1 6-4.6 9.6-5.8 3.5-1 7.3-1.8 10.9-.9 2.5.7 4.7 2.5 5.2 5.1.4 1.3.2 2.8-.5 4-1.1 1.5-3.1 2.1-5 2-1.6 0-3.1-.8-4.2-1.9-.7-.7-1.9-.9-2.8-.3-.9.6-1.4 1.7-.9 2.7 1.9 3 5.7 4.5 9.1 4.4 3.5 0 7.1-1.7 9.1-4.8 1.7-2.8 1.9-6.3.6-9.3-1.7-3.4-5.1-5.4-8.6-6.3-4-.9-8.1-.6-12.1.2-4.6.9-9.2 2.4-13 5.3-4.8 3.6-7.9 9.5-7.8 15.7.2 6.6 3.8 12.8 9.4 16.3 6.1 3.8 13.6 4.5 20.6 3.6 7.7-1.1 15.6-4.7 19.9-11.4 3.6-5.9 3.8-13.6.6-19.7-3.1-5.9-8.9-9.8-15-11.6-8.2-2.3-17.2-1.7-25.1 1.3-3.7 1.4-7.1 3.4-10.2 5.9-.8.7-.9 2.1-.1 2.9.9.9 2.1.9 3.1.1 2.8-2.3 5.9-4.2 9.2-5.6 7.1-2.8 15.1-3.5 22.5-1.4 5.1 1.5 9.9 4.8 12.5 9.7 2.5 5 2.1 11.2-1 15.9-3.5 5.5-10.1 8.5-16.6 9.4-6.1.9-12.6.2-18-2.9-4.4-2.6-7.3-7.5-7.6-12.6-.2-5.5 2.3-10.8 6.9-13.9 3.6-2.4 8-3.5 12.3-4.1 3.6-.5 7.2-.5 10.8.2 3 .6 6 2.1 7.7 4.8 1.8 2.7 1.3 6.4-.8 8.8-1.9 2.1-4.9 2.7-7.6 2.4-2.5-.3-4.8-1.8-6.2-3.9 2.6-.4 5-2.2 5.7-4.8 1-3.5-1-7.4-4.3-8.7-4.2-1.5-8.8-.6-12.8.7-4.2 1.4-8.3 3.7-10.6 7.8-2.1 3.9-2.1 8.8.1 12.7 2.2 3.9 6.6 6 10.8 6.5 4.7.5 9.4-.3 13.8-2 3.3-1.3 6.4-3.6 7.4-7.2.6-2.5-.2-5.1-1.8-7.1" fill="#D32323"/>
</svg>
