<?xml version="1.0" encoding="UTF-8"?>
<svg width="48" height="48" viewBox="0 0 48 48" fill="none" xmlns="http://www.w3.org/2000/svg">
  <circle cx="30" cy="18" r="10" fill="#FFD700" stroke="#FF5E5B" stroke-width="2"/>
  <path d="M36 32C40.4183 32 44 28.4183 44 24C44 19.5817 40.4183 16 36 16C36 11.5817 32.4183 8 28 8C24.27 8 21.1087 10.2913 20.1741 13.5793C19.4539 13.2123 18.6396 13 17.7778 13C14.5796 13 12 15.5796 12 18.7778C12 19.0251 12.0147 19.2688 12.0428 19.5078C8.58704 20.3969 6 23.5275 6 27.2222C6 31.6587 9.56332 35.2221 14 35.2221L36 35.2221V32Z" fill="#E6E6FA" stroke="#4682B4" stroke-width="2"/>
</svg>
