<?xml version="1.0" encoding="UTF-8"?>
<svg width="48" height="48" viewBox="0 0 48 48" fill="none" xmlns="http://www.w3.org/2000/svg">
  <path d="M36 22C40.4183 22 44 18.4183 44 14C44 9.58172 40.4183 6 36 6C36 1.58172 32.4183 -2 28 -2C24.27 -2 21.1087 0.29126 20.1741 3.57928C19.4539 3.21225 18.6396 3 17.7778 3C14.5796 3 12 5.57959 12 8.77777C12 9.02506 12.0147 9.26882 12.0428 9.50782C8.58704 10.3969 6 13.5275 6 17.2222C6 21.6587 9.56332 25.2221 14 25.2221L36 25.2221V22Z" fill="#5F6A6A" stroke="#4682B4" stroke-width="2"/>
  <path d="M20 25L24 32H18L22 40" stroke="#FFD700" stroke-width="3" stroke-linecap="round" stroke-linejoin="round"/>
  <path d="M30 25L34 32H28L32 40" stroke="#FFD700" stroke-width="3" stroke-linecap="round" stroke-linejoin="round"/>
</svg>
