<?xml version="1.0" encoding="UTF-8"?><svg id="Layer_2" xmlns="http://www.w3.org/2000/svg" viewBox="0 0 303.48 74.82"><defs><style>.cls-1,.cls-2{fill:#002c57;}.cls-3{fill:#fff;}.cls-4{fill:#be1e2d;}.cls-2{fill-rule:evenodd;}</style></defs><g id="Layer_1-2"><g><path class="cls-3" d="M0,64.18l.25-.93s40.52-.12,82.32,0c-2.21,10.01-2.51,11.31-2.51,11.31C77.76,74.71,33.82,77.03,0,64.18Z"/><path class="cls-3" d="M79.55,38.49c-.11-.16-.28-.71-.5-1.7-.12-.52-.43-1.14-.43-1.14l-.14-.34c-.03-.22-.15-.48-.3-.81l-.1-.23c-.14-.31-.37-1.11-.49-1.48,0,0-.15-.31-.24-.73-.1-.49-.43-1.79-.78-2.51l-.13-.27c-.31-.67-.78-1.66-1.78-2.6l-.61-1.16-2.96-1.46c.61,.72,1.33,1.88,1.78,3.04,1.29,3.34,.66,5.91,.66,5.91l-1.38-.06s.82-3.13-.37-5.82c-.85-1.93-1.35-2.84-1.62-3.28l-.11,.04c-.06-.12-.1-.23-.11-.28,0-.03,0-.07-.01-.12-.04-.05-.04-.06-.01-.06-.03-.17-.09-.42-.18-.76,.17,.06,.34,.08,.5,.05,.25-.05,.45-.21,.55-.45,.21-.5,.21-.77,.17-.94,.03-.08,.11-.22,.2-.38,.33-.6,.49-.92,.48-1.19,0-.3-.02-.7-.02-.99,.39-.04,.57-.26,.64-.39,.21-.4,0-.88-.25-1.36l-.11-.36,.6,.48c.6-.82,.2-1.67,.18-1.78h-.71s-.05,.03-.12,.09c.02-.05,.04-.09,.07-.12,.12-.17,.17-.37,.17-.57h.06c1.03,0,1.52-.03,1.75-.09,.33-.09,.46-.34,.47-.54,.02-.33-.22-.62-.7-.83-.27-.12-.69-.23-.92-.29-.06-.08-.15-.21-.21-.36-.15-.38-.32-.71-.66-1.29-.32-.55-1-1.7-1.54-2.4-.55-.72-1.41-1.27-2.04-1.6-.48-.26-1.38-.34-2.84-.25-.66,.04-1.04,.16-1.3,.26-.13,.05-.22,.12-.28,.18-.09,.07-.24,.2-.8,.44-1.04,.45-1.86,1.35-2.24,1.98-.41,.67-.85,1.66-.89,2.46-.04,.72-.18,1.71-.27,2.01-.05,.16-.09,.27-.13,.39-.05,.14-.1,.28-.17,.5-.17,.55-.04,.89,.1,1.07,.09,.12,.29,.3,.64,.33,.1,.36,.28,1.33-.53,1.51-.99,.22,.55,.66,1.21,.77,.35,.06,.49,.46,.55,.83,.07,.46-.97,.91-.7,1.28l.99,.72c-.34,.11-.66,.21-.87,.31-.18,.09-.5,.14-1.02,.21,1.09,1.29,2.63,3.63,2.92,5.27,.53,3.07,.52,5,.52,5h-1.47s0-2.96-.44-5.29c-.42-2.31-1.65-3.99-2.39-4.85l-1.46-.73-3.47,.69-3.82-2.1-7.43,2.13,.1-15.74c-.27,.05-.54,.1-.8,.16l-.67,15.98-9.46,2.72,.61,1.52-.38,5.96-13.76,2.55-.28,1.22,4.96-.67-.7,7.46-6.01,.77-.25,1.09,6.14-.49-.66,6.97-7.05,.53h-.06l-.29,1.26c.06,0,.07,0,.16,0l7.1-.28-.66,7c.9,0,1.79,0,2.67,0l.23-7.09,7.19-.28-.47,7.37c1.07,0,2.11,0,3.13,0v-7.48l6.6-.26-.33,7.74c1.33,0,2.61,0,3.86,0v-.03h.85c3.23-2.38,5.89-4.92,8.07-7.37l-.02,.61c-.09,.29-.08,.64-.07,.96,0,.06,0,.12,0,.18-.11,.06-.29,.14-.41,.19-.51,.23-.65,.82-.81,1.23,0,0-.11-.1-.12-.1-.84,.06-1.46,.83-1.43,1.17-.02,.36-.67,1.66-1.42,3.23,13.47,.01,21.74,.04,26.8,.06-.02-.56-.04-.92-.04-1,0,0-.01-.2-.03-.41,.12,.01,.38-.07,.38-.07,1.45,.05,1.81,0,2.03-.14,.56-.37,.34-2.15,.22-2.89-.05-.31-.1-.81-.14-1.3-.11-1.16-.14-1.44-.25-1.63-.1-.17-.21-.34-1.79-.62,.02-.21-.05-.35-.13-.44-.02-.03-.04-.09-.07-.17,.07-.06,.14-.13,.2-.17,.16-.05,.49-.17,.67-.59,.1-.23,.24-.58,.31-.78,.17-.11,.44-.31,.62-.55,.26-.35,.33-.74,.38-1.05,0-.03,.02-.07,.03-.12,.08-.28,.21-.69,.03-1.04,.23-.46,1.33-2.71,1.64-3.5,.36-.94,.59-2.95,.59-3.31v-.23c0-.23-.01-.44,.03-.64,.08-.35,.15-1-.21-1.52Zm-48.61,12.81l-7.25,.54,.23-6.94,7.48-.59-.45,6.99Zm.56-8.8l-7.55,.96,.24-7.41,7.79-1.05-.48,7.5Zm8.67,8.11l-6.69,.5v-6.97l6.99-.56-.3,7.02Zm.39-9.26l-7.08,.9v-7.45l7.4-1-.32,7.55Zm.42-9.89l-7.5,1.39v-5.93l7.77-1.78-.27,6.31Zm30.17-16.09s.22,.88-.28,1.55c-.43,.57-1.05,.58-1.5,.56-.53-.02-1.05-.26-1.39-.41-.25-.11-.85-.48-.95-.71-.11-.26,.04-.37,.1-.43-.23-.04-2.82-.18-2.82-.18v-.59l6.84,.21Zm-28.19,28.02l3.85-.31c.47,.52,.9,.96,1.05,1.1,.24,.23,.66,.56,1.09,.91,.36,.29,.73,.58,.98,.8,.23,.2,.7,.56,1.2,.94,.54,.41,1.36,1.03,1.49,1.19,.03,.05,.05,.08,.08,.11l-.05,1.54-9.43,.71-.27-6.99Zm9-3.64c-.03-.07-.08-.19-.16-.34-.17-.37-.45-.96-.74-1.68-.3-.75-.42-1.6-.46-1.92,.08-.15,.28-.44,.63-.67l1.86,.61-.14,4.41-.8-.05c-.12-.2-.17-.3-.19-.35Zm-9.26-14.94l6.89-1.57,2.92,1.34-.07,.04-.29,.14c-.67,.31-1.11,.96-1.21,1.17-.05,.07-.27,.3-.45,.48l-.22,.23c-.17,.17-.33,.31-.46,.42-.17,.14-.31,.26-.42,.41-.08,.1-.57,.63-1.23,1.15-.21,.17-.52,.54-.66,.71-.17,.11-.55,.38-1.08,.9-.07,.07-.15,.17-.22,.27l-3.53,.65,.04-6.33Zm-.05,8.74l2.25-.3c-.07,.18-.14,.36-.21,.54-.15,.4-.28,.73-.35,.88-.4,.85-.56,1.55-.48,2.1,.02,.13-.02,.28-.06,.43-.07,.26-.17,.65,.11,.99,.11,.14,.17,.24,.24,.36,.06,.1,.12,.21,.21,.35,.1,.15,.35,.74,.55,1.21,.09,.22,.18,.44,.27,.64l-2.31,.29-.23-5.93v-1.57Zm.92,25.71l-.25-6.62,7.92-.31c-2.08,2.31-4.62,4.7-7.66,6.93Zm30.91-17.09c-.17,.59-.36,1.38-.4,2.35-.02,.61-.05,.78-.07,.95l-.03,.26c-.01,.14-.25,.37-.42,.54l-.08,.08c-.15,.15-.19,.17-.32,.24-.06,.03-.13,.07-.23,.12h0c0-.33-.01-.73-.03-1.06-.02-.46-.1-.82-.16-1.09-.02-.11-.05-.2-.05-.26,0-.18-.07-.35-.16-.55-.09-.21-.19-.44-.19-.65,0-.31,.07-.41,.23-.65l.07-.1c.25-.38,.22-.78,.2-1.08,0-.08-.01-.15-.01-.23,0-.19,.03-.58,.07-.94-.51-1.36-.64-2.54-.65-3.31l-9.38,.14s-.73,1.64-1.37,3.05c-1.66,3.61-4.1,5.7-4.42,5.35s1.3-1.16,3.01-5.3c1.03-2.51,1.42-4.33,1.42-4.33l11.26,.1,.9-.05s-.18,1.19,.28,2.95c.17,.29,.29,.64,.38,.89,.06,.17,.11,.31,.15,.38,.02,.05,.03,.18,.03,.32,.02,.05,.04,.1,.06,.16,.1,.21,.04,.62-.07,1.04,.02,.23,.04,.48-.02,.69Z"/><g><path class="cls-3" d="M42.94,6.68l-.95,.19c-11.39,2.29-18.09,4.87-18.09,4.87L12.6,60.45c14.93,0,26.45,0,35.73,.01-.2,.4-.26,1.14,.06,1.42,.36,.32,1.28,.71,2.16,1.06,.3,.12,1.14,.78,1.14,.78,0,0,7.4-.7,12.73-.48,2.02,.08,3.72,1.02,4.64,1.12,1.9,.22,6.24-1.06,6.24-1.06l-.22-2.66,8-.06s1.39-7.28,12.18-56.21c-21.23-2.21-39.54-.17-52.3,2.31Z"/><g><polygon class="cls-1" points="42.94 6.72 42.91 0 42.34 .08 41.99 6.91 42.94 6.72"/><polygon class="cls-1" points="18.35 35.67 11.98 36.78 11.76 37.5 18.06 36.89 18.13 36.62 18.35 35.67"/></g><path class="cls-1" d="M50.61,35.78c.04,.32,.16,1.17,.46,1.92,.29,.73,.57,1.32,.74,1.68,.07,.15,.13,.27,.16,.34,.02,.05,.07,.15,.19,.35l.8,.05,.14-4.41-1.86-.61c-.35,.23-.55,.52-.63,.67Z"/><path class="cls-1" d="M42.71,24.78l-.04,6.33,3.53-.65c.08-.11,.15-.2,.22-.27,.53-.52,.91-.79,1.08-.9,.14-.17,.44-.55,.66-.71,.66-.53,1.15-1.05,1.23-1.15,.11-.14,.26-.27,.42-.41,.14-.11,.3-.25,.46-.42l.22-.23c.18-.18,.4-.41,.45-.48,.1-.21,.54-.85,1.21-1.17l.29-.14,.07-.04-2.92-1.34-6.89,1.57Z"/><path class="cls-1" d="M49.68,57.33c-.02-.34,.59-1.11,1.43-1.17,0,0,.11,.1,.12,.1,.16-.41,.3-1,.81-1.23,.13-.06,.3-.13,.41-.19,0-.05,0-.12,0-.18,0-.32-.02-.67,.07-.96l.02-.61c-2.18,2.44-4.84,4.99-8.07,7.37,1.32,0,2.6,0,3.83,0,.73-1.52,1.35-2.78,1.37-3.13Z"/><path class="cls-1" d="M42.65,35.09l.23,5.93,2.31-.29c-.09-.2-.18-.42-.27-.64-.2-.47-.45-1.06-.55-1.21-.09-.14-.15-.25-.21-.35-.07-.12-.13-.23-.24-.36-.28-.34-.18-.73-.11-.99,.04-.15,.08-.3,.06-.43-.08-.54,.08-1.25,.48-2.1,.07-.16,.2-.48,.35-.88,.07-.18,.14-.36,.21-.54l-2.25,.3v1.57Z"/><path class="cls-1" d="M67.04,16.33c.1,.23,.7,.6,.95,.71,.34,.16,.86,.39,1.39,.41,.45,.02,1.07,0,1.5-.56,.51-.67,.28-1.55,.28-1.55l-6.84-.21v.59s2.6,.14,2.82,.18c-.06,.06-.21,.16-.1,.43Z"/><polygon class="cls-1" points="33.48 32.82 40.98 31.43 41.25 25.12 33.48 26.89 33.48 32.82"/><path class="cls-1" d="M60.09,40.01c-1.71,4.14-3.33,4.95-3.01,5.3s2.76-1.73,4.42-5.35c.65-1.41,1.37-3.05,1.37-3.05l9.38-.14c.01,.77,.14,1.95,.65,3.31-.04,.36-.07,.74-.07,.94,0,.07,0,.15,.01,.23,.02,.3,.05,.7-.2,1.08l-.07,.1c-.16,.24-.23,.34-.23,.65,0,.22,.1,.45,.19,.65,.08,.19,.16,.36,.16,.55,0,.06,.03,.15,.05,.26,.06,.27,.14,.63,.16,1.09,.02,.33,.03,.73,.03,1.06h0c.09-.05,.16-.09,.23-.12,.13-.07,.17-.09,.32-.24l.08-.08c.17-.17,.41-.41,.42-.54l.03-.26c.02-.17,.05-.34,.07-.95,.04-.96,.23-1.76,.4-2.35,.06-.21,.05-.46,.02-.69,.11-.42,.17-.83,.07-1.04-.02-.05-.04-.11-.06-.16,0-.13-.01-.26-.03-.32-.04-.08-.09-.21-.15-.38-.09-.25-.21-.6-.38-.89-.46-1.76-.28-2.95-.28-2.95l-.9,.05-11.26-.1s-.39,1.82-1.42,4.33Z"/><path class="cls-1" d="M51.23,52.31l-7.92,.31,.25,6.62c3.04-2.24,5.58-4.63,7.66-6.93Z"/><path class="cls-1" d="M52.71,48.11s-.05-.07-.08-.11c-.13-.16-.95-.78-1.49-1.19-.5-.38-.97-.74-1.2-.94-.25-.22-.62-.51-.98-.8-.43-.34-.85-.68-1.09-.91-.15-.14-.58-.58-1.05-1.1l-3.85,.31,.27,6.99,9.43-.71,.05-1.54Z"/><polygon class="cls-1" points="23.69 51.82 30.94 51.27 31.39 44.28 23.91 44.88 23.69 51.82"/><polygon class="cls-1" points="16.32 44.41 22.32 43.65 23.02 36.18 18.07 36.85 16.32 44.41"/><polygon class="cls-1" points="14.44 52.51 14.49 52.51 21.54 51.98 22.19 45.01 16.06 45.5 14.44 52.51"/><path class="cls-1" d="M21.4,53.49l-7.1,.28c-.08,0-.1,.01-.15,0l-1.55,6.67c2.83,0,5.54,0,8.15,0l.66-6.96Z"/><polygon class="cls-1" points="33.48 51.08 40.18 50.58 40.47 43.56 33.48 44.12 33.48 51.08"/><path class="cls-1" d="M33.48,60.45c2.19,0,4.28,0,6.28,0l.33-7.71-6.6,.26v7.44Z"/><polygon class="cls-1" points="33.48 42.22 40.57 41.32 40.89 33.77 33.48 34.77 33.48 42.22"/><polygon class="cls-1" points="23.96 43.44 31.51 42.47 31.99 34.97 24.2 36.02 23.96 43.44"/><path class="cls-1" d="M23.41,60.45c2.41,0,4.73,0,6.95,0l.47-7.34-7.19,.28-.23,7.05Z"/><g><path class="cls-1" d="M42.02,6.86h-.03c-11.39,2.29-18.09,4.88-18.09,4.88l-5.54,23.89h0l13.76-2.55,.38-5.96-.61-1.52,9.46-2.72,.67-15.98v-.03Z"/><path class="cls-1" d="M42.94,6.68l-.12,.02v.03l-.1,15.74,7.43-2.13,3.82,2.1,3.47-.69,1.46,.73c.74,.85,1.97,2.54,2.39,4.85,.43,2.34,.44,5.28,.44,5.28h1.47s.01-1.92-.52-4.99c-.29-1.65-1.83-3.98-2.92-5.27,.52-.07,.85-.12,1.02-.21,.21-.1,.53-.21,.87-.31l-.99-.72c-.27-.38,.77-.82,.7-1.28-.05-.36-.2-.77-.55-.83-.66-.11-2.2-.55-1.21-.77,.81-.18,.63-1.15,.53-1.51-.35-.03-.56-.21-.64-.33-.14-.19-.27-.52-.1-1.07,.07-.22,.12-.36,.17-.5,.04-.11,.08-.22,.13-.39,.09-.31,.23-1.3,.27-2.01,.04-.79,.49-1.79,.89-2.46,.39-.63,1.2-1.53,2.24-1.98,.56-.24,.71-.37,.8-.44,.07-.06,.15-.13,.28-.18,.26-.1,.64-.23,1.3-.26,1.46-.08,2.37,0,2.84,.25,.63,.33,1.49,.88,2.04,1.6,.54,.7,1.21,1.85,1.54,2.4,.34,.58,.51,.91,.66,1.29,.06,.15,.15,.28,.21,.36,.23,.06,.66,.17,.92,.29,.48,.21,.72,.5,.7,.83-.01,.2-.15,.45-.47,.54-.23,.07-.72,.09-1.75,.09h-.06c0,.19-.04,.39-.17,.57-.02,.03-.05,.07-.07,.12,.07-.07,.12-.09,.12-.09h.71c.02,.11,.42,.96-.18,1.78l-.6-.48,.11,.36c.26,.48,.47,.96,.25,1.36-.07,.13-.25,.36-.64,.39,0,.29,.01,.69,.02,.99,0,.27-.15,.58-.48,1.19-.09,.16-.17,.3-.2,.38,.04,.18,.05,.45-.17,.94-.1,.24-.3,.4-.55,.45-.16,.03-.33,0-.5-.05,.09,.34,.16,.59,.18,.76-.03,0-.03,0,.01,.06,0,.05,.01,.09,.01,.12,0,.05,.05,.16,.11,.28l.11-.04c.27,.44,.77,1.36,1.62,3.28,1.18,2.69,.37,5.82,.37,5.82l1.38,.06s.64-2.56-.66-5.91c-.45-1.17-1.17-2.32-1.78-3.04l2.96,1.46,.61,1.16c1,.94,1.47,1.93,1.78,2.6l.13,.27c.35,.71,.68,2.02,.78,2.51,.09,.42,.23,.73,.24,.73,.11,.37,.35,1.17,.49,1.48l.1,.23c.15,.33,.27,.58,.3,.81l.14,.34s.31,.62,.43,1.14c.23,.99,.39,1.55,.5,1.7,.36,.51,.28,1.17,.21,1.52-.04,.2-.04,.41-.03,.64v.23c0,.36-.23,2.37-.59,3.31-.3,.79-1.41,3.04-1.64,3.5,.17,.35,.05,.77-.03,1.04-.01,.05-.03,.09-.03,.12-.05,.31-.12,.7-.38,1.05-.18,.24-.45,.44-.62,.55-.08,.21-.21,.56-.31,.78-.19,.42-.51,.53-.67,.59-.06,.04-.13,.1-.2,.17,.03,.08,.06,.14,.07,.17,.08,.09,.15,.23,.13,.44,1.58,.28,1.69,.45,1.79,.62,.11,.18,.15,.47,.25,1.63,.04,.49,.09,.99,.14,1.3,.12,.75,.34,2.9-.22,3.27-.22,.15-.57,.19-2.03,.14,0,0-.27,.08-.38,.07,.02,.22,.03,.03,.03,.03,0,.07,.02,.5,.04,1,7.53,.03,8-.04,8-.04,0,0,1.39-7.28,12.18-56.21-21.23-2.21-39.54-.17-52.3,2.31Z"/></g></g><g><path class="cls-4" d="M35.91,65.43c-4.84,2.3-9.93,3.78-15.19,4.43-.15,.02-.16,.23-.01,.26,10.32,2.18,20.64,3.38,29.72,4.02,.25-.19,1.78-4.64,1.96-5.34,.06-.23,.14-.55,.14-.64-.02-.07-.18-.24-.39-.44-.26,.49-.62,1.16-.71,1.32-.02,.04-.04,.09-.06,.13-.09,.21-.31,.7-.96,.61-.49-.06-1.24-.56-1.43-1.07-.21-.57,.04-.89,.3-1.23,.16-.21,1.43-2.35,2.3-3.83-.12-.17-.22-.32-.31-.46-3.84,0-7.58,0-11.15,0-.02,0-.05,0-.07,.02-1.31,.78-2.68,1.52-4.14,2.22Z"/><path class="cls-4" d="M61.35,72.59c-.24,.78-.45,1.46-.63,2.08,1.76,.06,3.43,.09,5,.12,.05-.24,.09-.48,.13-.7,.19-1.25,.12-4.88-.23-6.49-.35-1.6,.27-.56-.38-2.08-.48-1.12-.67-1.94-.75-2.31h-.11c-.33,.99-1.8,5.47-3.03,9.38Z"/><path class="cls-4" d="M35.26,64.08c.6-.28,1.18-.58,1.76-.88-21.48,0-36.77,.05-36.77,.05l-.25,.93c4.73,1.8,9.66,3.3,14.64,4.55,7.21-.03,14.14-1.58,20.62-4.65Z"/><path class="cls-4" d="M75.29,63.23c.15,3.69,.35,9.07,.35,11.51,2.48-.06,4.04-.15,4.42-.17,0,0,.3-1.3,2.51-11.31-2.44,0-4.87-.01-7.29-.02Z"/></g></g><polygon class="cls-2" points="123.09 20.84 124.39 14.69 100.24 14.69 98.94 20.84 107.9 20.84 102.61 45.87 108.84 45.87 114.13 20.84 123.09 20.84"/><path class="cls-2" d="M137.74,23.64c-.62-.85-1.97-1.65-3.97-1.65-2.18,0-3.94,.94-5.24,2.05l.33-1.56h-6.15l-4.94,23.39h6.15l2.67-12.65c.86-4.05,2.63-5.08,5.04-5.08,1.38,0,2.45,.62,3.24,1.51l2.87-6.01Z"/><path class="cls-2" d="M148.54,39.01c-.9,1.11-2.72,2.14-4.73,2.14-2.63,0-3.25-1.47-2.91-3.12,.4-1.87,1.87-2.94,4.19-2.94,2.18,0,3.14,.31,4.07,.98l-.62,2.94Zm4.7,6.86l3.31-15.68c1.11-5.26-2.1-8.2-7.76-8.2-3.79,0-6.23,.8-9.27,2.36l1.46,4.28c2.38-1.16,3.94-1.56,6.74-1.56,2.23,0,3.06,1.34,2.71,2.98l-.24,1.16c-.88-.49-2.16-.94-4.3-.94-5.3,0-10.03,2.58-11.13,7.75-1.2,5.66,2.61,8.33,6.97,8.33,2.18,0,4.33-.89,5.69-2.05l-.33,1.56h6.15Z"/><path class="cls-2" d="M171.32,38.61c-1.14,1.16-2.28,1.96-4.2,1.96-2.41,0-3.59-2-2.57-6.82,.83-3.92,2.55-5.97,4.91-5.97,1.78,0,3.06,.71,3.72,2.01l-1.86,8.82Zm4.61,7.26l6.86-32.47-6.8,3.07-1.55,7.35c-.9-1.02-2.51-1.83-4.56-1.83-5.79,0-10.12,4.9-11.6,11.89-1.84,8.73,1.46,12.47,6.45,12.47,2.23,0,3.98-.94,5.36-1.96l-.31,1.47h6.15Z"/><path class="cls-2" d="M196.09,31.53h-8.02c.72-2.36,2.49-4.19,4.72-4.19,2.76,0,3.57,2.09,3.3,4.19Zm5.4,2.67c1.41-6.68-1.03-12.21-7.27-12.21s-11.49,5.03-13,12.21c-1.56,7.4,1.71,12.16,8.43,12.16,3.12,0,6.8-1.38,9.17-3.79l-3.59-3.65c-1.11,1.02-2.66,1.65-4.36,1.65-2.23,0-4.33-1.2-3.88-4.41h13.99c.14-.45,.31-1.07,.5-1.96Z"/><path class="cls-2" d="M221.23,39.06c.99-4.68-2.3-6.19-6.2-7.57-3.86-1.34-4.49-1.74-4.28-2.72,.22-1.02,.99-1.51,3.48-1.51,1.96,0,4.37,.62,6.42,1.87l2.99-4.86c-2.2-1.38-5.22-2.27-8.16-2.27-5.48,0-9.8,2.09-10.82,6.95-1.04,4.95,2.27,6.33,7.53,8.02,2.42,.76,3.16,1.29,2.93,2.36-.25,1.2-1.09,1.78-3.49,1.78-2.98,0-5.45-.76-7.66-2.14l-3.04,4.68c2.15,1.65,5.53,2.72,9.23,2.72,5.26,0,9.94-1.92,11.08-7.31Z"/><path class="cls-2" d="M255.51,45.87l2.79-13.19c1.39-6.59-.1-10.69-6.07-10.69-3.88,0-6.12,1.34-8.07,2.98-1.29-2.14-2.84-2.98-5.83-2.98-2.45,0-4.25,.94-5.56,2.05l.33-1.56h-6.15l-4.94,23.39h6.15l2.7-12.78c.86-4.05,2.37-5.3,4.91-5.3s3.48,1.25,2.59,5.44l-2.67,12.65h6.15l2.7-12.78c.86-4.05,2.37-5.3,4.91-5.3s3.48,1.25,2.59,5.44l-2.67,12.65h6.15Z"/><path class="cls-2" d="M274.76,31.53h-8.02c.72-2.36,2.49-4.19,4.72-4.19,2.76,0,3.57,2.09,3.3,4.19Zm5.4,2.67c1.41-6.68-1.03-12.21-7.27-12.21s-11.49,5.03-13,12.21c-1.56,7.4,1.71,12.16,8.43,12.16,3.12,0,6.8-1.38,9.17-3.79l-3.59-3.65c-1.11,1.02-2.66,1.65-4.36,1.65-2.23,0-4.33-1.2-3.88-4.41h13.99c.14-.45,.31-1.07,.5-1.96Z"/><path class="cls-2" d="M300.25,45.87l2.79-13.19c1.39-6.59-.41-10.69-6.38-10.69-2.45,0-4.61,.94-5.91,2.05l.33-1.56h-6.15l-4.94,23.39h6.15l2.7-12.78c.86-4.05,2.59-5.3,5.13-5.3s3.7,1.25,2.82,5.44l-2.67,12.65h6.15Z"/><g><path class="cls-1" d="M100.74,60.81h-1.43l2.02-9.52h1.43l-2.02,9.52Z"/><path class="cls-1" d="M111.33,60.81h-1.36l-2.52-5.97c-.16-.35-.36-.92-.46-1.17-.08,.35-.34,1.67-.45,2.2l-1.05,4.94h-1.39l2.02-9.52h1.46l2.38,5.81c.16,.39,.42,1.1,.5,1.35,.08-.35,.35-1.71,.46-2.24l1.04-4.91h1.39l-2.02,9.52Z"/><path class="cls-1" d="M122.72,52.69h-2.77l-1.73,8.12h-1.43l1.73-8.12h-2.77l.3-1.4h6.97l-.3,1.4Z"/><path class="cls-1" d="M130.02,60.81h-6.33l2.02-9.52h6.13l-.29,1.39h-4.7l-.5,2.35h2.73l-.29,1.39h-2.73l-.64,3h4.91l-.29,1.39Z"/><path class="cls-1" d="M141.51,54.13c-.32,1.52-1.32,2.46-2.69,2.79l1.12,3.89h-1.64l-1.09-3.77h-2.15l-.8,3.77h-1.4l2.02-9.52h4.17c1.66,0,2.87,.88,2.45,2.84Zm-1.45,.04c.21-.99-.33-1.54-1.29-1.54h-2.77l-.65,3.06h2.77c.95,0,1.72-.49,1.94-1.52Z"/><path class="cls-1" d="M150.34,60.81h-1.36l-2.52-5.97c-.16-.35-.36-.92-.46-1.17-.08,.35-.34,1.67-.45,2.2l-1.05,4.94h-1.39l2.02-9.52h1.46l2.38,5.81c.16,.39,.42,1.1,.5,1.35,.08-.35,.35-1.71,.46-2.24l1.04-4.91h1.39l-2.02,9.52Z"/><path class="cls-1" d="M161.43,60.81h-1.52l-.32-2.26h-3.81l-1.27,2.26h-1.48l5.45-9.52h1.51l1.44,9.52Zm-2.01-3.54l-.3-2.19c-.09-.68-.23-1.78-.25-2.19-.2,.41-.77,1.5-1.16,2.2l-1.22,2.18h2.94Z"/><path class="cls-1" d="M171,52.69h-2.77l-1.73,8.12h-1.43l1.73-8.12h-2.77l.3-1.4h6.97l-.3,1.4Z"/><path class="cls-1" d="M173.46,60.81h-1.43l2.02-9.52h1.43l-2.02,9.52Z"/><path class="cls-1" d="M185.48,56.03c-.63,2.96-2.71,4.92-5.12,4.92s-3.63-1.93-3-4.9,2.71-4.92,5.11-4.92,3.64,1.93,3.01,4.9Zm-1.46,.03c.46-2.16-.37-3.51-1.89-3.51s-2.85,1.32-3.31,3.48c-.46,2.16,.36,3.51,1.88,3.51s2.86-1.32,3.32-3.48Z"/><path class="cls-1" d="M194.52,60.81h-1.36l-2.52-5.97c-.16-.35-.36-.92-.46-1.17-.08,.35-.34,1.67-.46,2.2l-1.05,4.94h-1.39l2.02-9.52h1.46l2.38,5.81c.16,.39,.42,1.1,.5,1.35,.08-.35,.35-1.71,.46-2.24l1.04-4.91h1.39l-2.02,9.52Z"/><path class="cls-1" d="M205.61,60.81h-1.52l-.32-2.26h-3.81l-1.27,2.26h-1.48l5.45-9.52h1.51l1.44,9.52Zm-2.01-3.54l-.3-2.19c-.09-.68-.23-1.78-.25-2.19-.2,.41-.77,1.5-1.16,2.2l-1.22,2.18h2.94Z"/><path class="cls-1" d="M214.47,60.81h-6.17l2.02-9.52h1.43l-1.73,8.12h4.74l-.3,1.4Z"/></g><path class="cls-1" d="M76.62,60.46s-1.21,.18-1.54,.18c-.42,0-.27-.2-.54-.35-.77-.44-1.6-.24-1.63-.46s.18-.29,.74-.29,.37-.04,.96,.04,.29,.04,.77,0,1.15-.06,1.44,.2-.19,.68-.19,.68Z"/><g><path class="cls-1" d="M57.18,59.71s-.19,.1-.89-.1-1.86-1.07-1.86-1.07c0,0,.09-.03-.1,.45,.65,.82,1.65,1.03,1.65,1.03,0,0-.25,.47-.9,1.76s-3.96,7.86-3.96,7.86l-.72,.21,.32,.45,.19,.14,.69,.15,.19-.11,5.39-10.77Z"/><path class="cls-1" d="M54.09,55.88s3.58,1.78,4.83,2.31c.58,.25,.9-.39,.9-.39l.82-1.16-.58-.45-.78,1.03-4.62-2.11-.56,.76Z"/></g><path class="cls-3" d="M40.03,63.24c8.23-4.86,13.55-11.1,16.66-15.74l-1.25-.84c-3.31,4.93-9.18,11.72-18.52,16.57,1.03,0,2.07,0,3.1,0Z"/><path class="cls-1" d="M220.56,58.92c0,1.12-.88,1.99-2.02,1.99s-2.03-.88-2.03-1.99,.9-1.97,2.03-1.97,2.02,.88,2.02,1.97Zm-3.54,0c0,.88,.65,1.57,1.54,1.57s1.5-.7,1.5-1.56-.64-1.58-1.51-1.58-1.52,.71-1.52,1.57Zm1.21,1.03h-.46v-1.97c.18-.04,.43-.06,.76-.06,.37,0,.54,.06,.68,.14,.11,.08,.19,.24,.19,.43,0,.22-.17,.38-.41,.46v.02c.19,.07,.3,.22,.36,.48,.06,.3,.1,.42,.14,.49h-.49c-.06-.07-.1-.25-.16-.48-.04-.22-.16-.31-.41-.31h-.22v.79Zm.01-1.12h.22c.25,0,.46-.08,.46-.29,0-.18-.13-.3-.42-.3-.12,0-.2,.01-.25,.02v.56Z"/></g></svg>