<?xml version="1.0" encoding="UTF-8"?>
<svg version="1.1" xmlns="http://www.w3.org/2000/svg" width="1024" height="1024">
<path d="M0 0 C2 1 2 1 2.71435547 3.14208984 C2.92979004 4.07230957 3.14522461 5.0025293 3.3671875 5.9609375 C3.61339844 6.99089844 3.85960937 8.02085937 4.11328125 9.08203125 C4.49033203 10.71205078 4.49033203 10.71205078 4.875 12.375 C6.5583574 19.61610881 8.44733886 26.58138902 11.08056641 33.53857422 C12.29199527 36.78170376 13.26793921 40.05504822 14.25 43.375 C26.23515696 82.46628739 44.7527289 121.57534839 68.7109375 154.76171875 C69.40485596 155.72476929 69.40485596 155.72476929 70.11279297 156.70727539 C71.02028704 157.96182765 71.9331749 159.2125003 72.85205078 160.45874023 C76 164.78206412 76 164.78206412 76 167 C74.96540649 167.00808685 73.93081299 167.01617371 72.86486816 167.02450562 C63.09573278 167.10212492 53.32673396 167.18990369 43.5577774 167.28752708 C38.53594199 167.33738766 33.51412657 167.38371841 28.4921875 167.421875 C23.64212084 167.45885737 18.79222574 167.50525204 13.94230652 167.55806351 C12.09566774 167.57653879 10.24899228 167.59167186 8.40229797 167.60334396 C5.80773501 167.62032443 3.21355909 167.64938688 0.61914062 167.68115234 C-0.51590912 167.68439262 -0.51590912 167.68439262 -1.67388916 167.68769836 C-11.28713056 167.8372098 -19.76252246 170.43861148 -27 177 C-28.37775034 179.21486447 -29.51945486 181.28331701 -30.625 183.625 C-30.95781982 184.31029785 -31.29063965 184.9955957 -31.63354492 185.70166016 C-36.31936172 195.52940693 -40.42885492 205.62386859 -44.61181641 215.67236328 C-46.72076562 220.7277586 -48.86115187 225.76970066 -51 230.8125 C-54.9109203 240.04988737 -58.81095934 249.29183907 -62.70823669 258.5349884 C-65.99708706 266.33396148 -69.29280149 274.13002003 -72.59059143 281.92521667 C-74.67936965 286.86535665 -76.75960985 291.80885485 -78.82499695 296.75881958 C-79.65041191 298.73461068 -80.47972902 300.70870729 -81.31079102 302.68212891 C-82.27172766 304.96519314 -83.2259915 307.25108468 -84.17163086 309.54052734 C-91.39229245 326.60405469 -91.39229245 326.60405469 -98.98828125 330.359375 C-102.89821462 331.60447999 -106.92010049 331.83581893 -111 332 C-117.49296274 320.21154716 -120.23136462 308.62675192 -122.3125 295.4375 C-122.49627197 294.2825 -122.68004395 293.1275 -122.86938477 291.9375 C-123.03237061 290.84308594 -123.19535645 289.74867188 -123.36328125 288.62109375 C-123.51063721 287.6355249 -123.65799316 286.64995605 -123.80981445 285.63452148 C-123.9955604 283.06149905 -123.71154572 281.44514669 -123 279 C-122.84872063 277.49110697 -122.7313338 275.97858598 -122.640625 274.46484375 C-121.32927137 255.44587389 -117.09425752 239.20993324 -109 222 C-108.22500109 220.18927723 -107.45335143 218.37711066 -106.6875 216.5625 C-105 213 -105 213 -103 212 C-102.33278295 210.33355359 -101.66628752 208.66681828 -101 207 C-99.44690562 204.1517854 -97.75888676 201.38973201 -96.0625 198.625 C-95.57015869 197.82118896 -95.07781738 197.01737793 -94.57055664 196.18920898 C-91.54887475 191.32262965 -88.383531 186.63650318 -84.9375 182.0625 C-72.65536119 165.73332934 -61.25521604 148.44204119 -51.39990234 130.54248047 C-50.3992974 128.72519761 -49.39093063 126.91217974 -48.37744141 125.10205078 C-31.63787067 95.17458492 -18.89266986 63.99089848 -8.625 31.3125 C-8.41953552 30.66084869 -8.21407104 30.00919739 -8.00238037 29.33779907 C-4.9594218 19.63938647 -2.37634218 9.87916619 0 0 Z " fill="#000000" transform="translate(201,276)"/>
<path d="M0 0 C26.25712959 25.0292782 41.63578633 64.25887184 43.125 100 C43.76962372 132.87580948 31.98673009 161.86822307 10 186 C9.38125 186.70125 8.7625 187.4025 8.125 188.125 C-2.23879985 199.22907127 -15.15836766 207.61366501 -28.68359375 214.29296875 C-31.97956119 215.77616243 -31.97956119 215.77616243 -34 218 C-36.02646242 218.48085549 -38.05639395 218.9497354 -40.09765625 219.36328125 C-44.89819599 220.41642792 -49.61736221 221.78260061 -54.3515625 223.09765625 C-60.35894513 224.58342219 -66.11613312 225.12716283 -72.296875 225.1328125 C-72.9711554 225.13376923 -73.64543579 225.13472595 -74.34014893 225.13571167 C-75.75866795 225.13638776 -77.17719017 225.13457362 -78.59570312 225.13037109 C-80.73054219 225.12504851 -82.86516765 225.13031819 -85 225.13671875 C-92.71203992 225.14008175 -100.3310541 224.89586675 -108 224 C-108 223.34 -108 222.68 -108 222 C-109.32 222.33 -110.64 222.66 -112 223 C-112 222.34 -112 221.68 -112 221 C-112.55945313 220.92523437 -113.11890625 220.85046875 -113.6953125 220.7734375 C-137.59342215 216.85445489 -161.78675312 198.18537127 -177 180 C-177 179.34 -177 178.68 -177 178 C-168.27796341 177.17824831 -159.65219502 176.87844075 -150.8934269 176.95540047 C-148.80192488 176.97317777 -146.71050302 176.98320782 -144.61894226 176.99131775 C-138.68297792 177.01544689 -132.74712395 177.05132775 -126.8112793 177.09594727 C-123.1523273 177.1229207 -119.49343526 177.13983291 -115.83440208 177.15081596 C-114.45547434 177.15696045 -113.07655737 177.16688136 -111.69768715 177.18089485 C-96.64662875 177.33268652 -83.50618839 175.4290133 -72 165 C-66.40061296 159.34544658 -59 147.16046585 -59 139 C-58.34 139 -57.68 139 -57 139 C-56.61585938 137.78570313 -56.23171875 136.57140625 -55.8359375 135.3203125 C-53.74090723 129.04500014 -51.17711919 122.97544946 -48.625 116.875 C-48.0897769 115.58945104 -47.554789 114.30380414 -47.02001953 113.01806641 C-45.35149904 109.01002424 -43.67635735 105.0047695 -42 101 C-41.49146484 99.78441406 -40.98292969 98.56882812 -40.45898438 97.31640625 C-37.85693966 91.09984807 -35.25009265 84.88531971 -32.640625 78.671875 C-28.69216158 69.27003117 -24.75096409 59.86514722 -20.81207275 50.45928955 C-20.03408341 48.60173948 -19.25589247 46.74427383 -18.47747803 44.88690186 C-9.08776321 22.50531093 -9.08776321 22.50531093 0 0 Z " fill="#000000" transform="translate(283,453)"/>
<path d="M0 0 C11.55 0 23.1 0 35 0 C36.4540625 4.2075 36.4540625 4.2075 37.9375 8.5 C41.75630981 19.47110502 45.82941562 30.34316739 49.94433594 41.20605469 C51.30285328 44.80153861 52.65043048 48.40114794 54 52 C54 34.84 54 17.68 54 0 C61.92 0 69.84 0 78 0 C77.34 0.33 76.68 0.66 76 1 C76 27.73 76 54.46 76 82 C65.11 82 54.22 82 43 82 C41.13186603 77.09776773 39.26549924 72.19492385 37.40307617 67.29052734 C36.77283197 65.63229191 36.14168796 63.9743981 35.50952148 62.31689453 C34.58583269 59.89451515 33.6657105 57.47080281 32.74609375 55.046875 C32.47598984 54.34077087 32.20588593 53.63466675 31.92759705 52.90716553 C28.43064476 43.66663637 25.2668539 34.3338683 22 25 C22 43.81 22 62.62 22 82 C14.74 82 7.48 82 0 82 C0 54.94 0 27.88 0 0 Z " fill="#010101" transform="translate(570,383)"/>
<path d="M0 0 C4.82782198 5.05046425 7.21690745 11.54367739 7.359375 18.49609375 C7.109375 21.49609375 7.109375 21.49609375 6.109375 22.49609375 C4.08973301 22.56853428 2.06770376 22.57986563 0.046875 22.55859375 C-1.61021484 22.54505859 -1.61021484 22.54505859 -3.30078125 22.53125 C-4.15542969 22.51964844 -5.01007812 22.50804687 -5.890625 22.49609375 C-6.220625 23.15609375 -6.550625 23.81609375 -6.890625 24.49609375 C-10.890625 24.49609375 -10.890625 24.49609375 -13.890625 23.49609375 C-14.32375 22.38234375 -14.756875 21.26859375 -15.203125 20.12109375 C-16.58392407 16.3988818 -16.58392407 16.3988818 -19.515625 14.55859375 C-24.87422631 12.87162667 -29.63327194 12.48748919 -34.828125 14.80859375 C-38.28277336 17.63512423 -39.2687707 20.21438408 -39.890625 24.49609375 C-40.13205652 28.61871983 -40.12159725 32.74207274 -40.140625 36.87109375 C-40.16125 37.98226562 -40.181875 39.0934375 -40.203125 40.23828125 C-40.2325833 46.42452407 -40.03362911 51.09638289 -36.890625 56.49609375 C-32.16610282 59.98324107 -27.5325438 60.0477943 -21.890625 59.49609375 C-18.93574417 59.21687202 -18.93574417 59.21687202 -16.890625 57.49609375 C-15.40459367 53.87487004 -14.890625 50.39341055 -14.890625 46.49609375 C-19.510625 46.82609375 -24.130625 47.15609375 -28.890625 47.49609375 C-29.08547438 45.05897761 -29.27177678 42.62171977 -29.453125 40.18359375 C-29.53723633 39.1481543 -29.53723633 39.1481543 -29.62304688 38.09179688 C-29.85644005 34.87097101 -29.92286718 32.5928203 -28.890625 29.49609375 C-24.40680682 29.32812197 -19.92280187 29.16760099 -15.43847656 29.01391602 C-13.91366437 28.96061563 -12.38892135 28.90529603 -10.86425781 28.84790039 C-8.67007355 28.76565424 -6.47574135 28.690723 -4.28125 28.6171875 C-3.6019342 28.59015244 -2.92261841 28.56311737 -2.22271729 28.53526306 C1.06249785 28.43216416 3.97047285 28.46025604 7.109375 29.49609375 C7.20923037 33.60360614 7.28130103 37.71063584 7.32910156 41.8190918 C7.34905495 43.21277189 7.37622819 44.60637005 7.41113281 45.99975586 C7.65033338 55.80346159 7.20577988 63.5139797 0.796875 71.30859375 C-6.72822995 77.43367918 -14.35173138 79.29813411 -23.890625 80.49609375 C-24.880625 80.16609375 -25.870625 79.83609375 -26.890625 79.49609375 C-26.890625 80.15609375 -26.890625 80.81609375 -26.890625 81.49609375 C-51.85581361 76.31190725 -51.85581361 76.31190725 -58.734375 66.75390625 C-61.84369118 60.68233615 -62.19875779 54.88476379 -62.19140625 48.1953125 C-62.19569138 47.31889603 -62.1999765 46.44247955 -62.20439148 45.539505 C-62.21010926 43.69309346 -62.21065396 41.8466594 -62.20629883 40.00024414 C-62.20314601 37.2022377 -62.22660515 34.4052974 -62.25195312 31.60742188 C-62.3340371 8.96084471 -62.3340371 8.96084471 -54.59765625 0.9609375 C-42.28246265 -9.6070204 -12.9227066 -10.2794257 0 0 Z " fill="#010101" transform="translate(717.890625,387.50390625)"/>
<path d="M0 0 C3.28546656 0.26004658 6.19457652 0.28094318 9.4609375 -0.21484375 C12.77661441 -0.65890762 15.42036292 -0.37761391 18.70557976 0.06869125 C22.68544994 0.50581638 26.66263173 0.45513632 30.66235352 0.44580078 C32.06638428 0.44842926 32.06638428 0.44842926 33.4987793 0.45111084 C36.57082004 0.4554865 39.64280249 0.45260675 42.71484375 0.44921875 C44.86140453 0.44989296 47.00796524 0.45086397 49.15452576 0.45211792 C53.64395884 0.45358904 58.13337198 0.45145896 62.62280273 0.44677734 C68.36816017 0.44107698 74.11347091 0.44436474 79.85882664 0.45034981 C84.28810476 0.45396829 88.71737186 0.45281096 93.14665031 0.45022202 C95.26488183 0.44955649 97.38311435 0.45036805 99.50134468 0.45270157 C102.46389531 0.45524959 105.42637095 0.45135735 108.38891602 0.44580078 C109.69284554 0.44883713 109.69284554 0.44883713 111.02311707 0.45193481 C114.74368664 0.43904988 118.31790128 0.32753552 121.99668884 -0.25418091 C122.9748909 -0.39588715 123.95309296 -0.53759338 124.9609375 -0.68359375 C125.2909375 -0.35359375 125.6209375 -0.02359375 125.9609375 0.31640625 C129.93458685 0.45342864 133.4722215 0.39637796 137.3984375 -0.24609375 C140.32329183 -0.60528639 142.14495768 -0.61467375 144.97192383 -0.21923828 C150.43749527 0.43667188 155.84838372 0.4602782 161.34765625 0.44921875 C162.40829788 0.45017548 163.46893951 0.4511322 164.5617218 0.45211792 C166.78960225 0.45279469 169.01748473 0.45097571 171.24536133 0.44677734 C174.64864525 0.44140592 178.05179817 0.44674768 181.45507812 0.453125 C183.62760446 0.45246444 185.80013071 0.45118374 187.97265625 0.44921875 C188.98527023 0.45124298 189.99788422 0.45326721 191.04118347 0.45535278 C195.79421392 0.43960703 200.28776971 0.30973184 204.9609375 -0.68359375 C204.9609375 -0.02359375 204.9609375 0.63640625 204.9609375 1.31640625 C205.51523437 1.16042969 206.06953125 1.00445312 206.640625 0.84375 C207.36507813 0.64910156 208.08953125 0.45445312 208.8359375 0.25390625 C209.55523438 0.05667969 210.27453125 -0.14054687 211.015625 -0.34375 C212.9609375 -0.68359375 212.9609375 -0.68359375 214.9609375 0.31640625 C216.66901413 0.41162862 218.38082406 0.44270966 220.09155273 0.44338989 C221.72265991 0.44761963 221.72265991 0.44761963 223.38671875 0.45193481 C225.18496094 0.44889847 225.18496094 0.44889847 227.01953125 0.44580078 C228.9078064 0.44842926 228.9078064 0.44842926 230.83422852 0.45111084 C234.29802785 0.45568383 237.7617975 0.45389421 241.22559738 0.45073175 C244.86337107 0.44819868 248.50114223 0.45054915 252.13891602 0.45211792 C258.26579238 0.45394054 264.39265671 0.45153474 270.51953125 0.44677734 C277.55947823 0.44137335 284.59939608 0.4430686 291.63934231 0.44860375 C297.70500909 0.45317896 303.77066722 0.45376293 309.83633518 0.45116508 C313.44858334 0.44962131 317.06081795 0.44935469 320.67306519 0.45270157 C335.46367369 0.46458865 350.20455736 0.4198002 364.9609375 -0.68359375 C364.9609375 -0.02359375 364.9609375 0.63640625 364.9609375 1.31640625 C365.51523437 1.16042969 366.06953125 1.00445312 366.640625 0.84375 C367.36507813 0.64910156 368.08953125 0.45445312 368.8359375 0.25390625 C369.55523438 0.05667969 370.27453125 -0.14054687 371.015625 -0.34375 C372.9609375 -0.68359375 372.9609375 -0.68359375 374.9609375 0.31640625 C376.96894206 0.03528561 378.97107801 -0.29427342 380.9609375 -0.68359375 C380.9609375 -0.02359375 380.9609375 0.63640625 380.9609375 1.31640625 C381.8890625 1.15140625 382.8171875 0.98640625 383.7734375 0.81640625 C387.81132616 0.23495028 391.76032811 0.30059542 395.83203125 0.3515625 C400.63641423 0.29758067 405.40312817 -0.142181 410.1875 -0.5625 C411.10273437 -0.60246094 412.01796875 -0.64242188 412.9609375 -0.68359375 C413.2909375 -0.35359375 413.6209375 -0.02359375 413.9609375 0.31640625 C414.98501709 0.16880859 416.00909668 0.02121094 417.06420898 -0.13085938 C420.93332719 -0.67967734 424.4097879 -0.69450376 428.30859375 -0.52734375 C429.72345853 -0.47292547 431.13833535 -0.41881958 432.55322266 -0.36499023 C433.28406067 -0.33509003 434.01489868 -0.30518982 434.7678833 -0.27438354 C448.89360685 0.29420024 462.84664731 0.30715016 476.9609375 -0.68359375 C476.9609375 -0.02359375 476.9609375 0.63640625 476.9609375 1.31640625 C477.5271582 1.15342041 478.09337891 0.99043457 478.67675781 0.82250977 C481.03694867 0.29956453 483.09375907 0.20243883 485.5078125 0.21875 C486.35214844 0.22197266 487.19648437 0.22519531 488.06640625 0.22851562 C488.93910156 0.23689453 489.81179688 0.24527344 490.7109375 0.25390625 C491.59910156 0.25841797 492.48726562 0.26292969 493.40234375 0.26757812 C495.58861079 0.27933225 497.77473929 0.29576376 499.9609375 0.31640625 C499.9609375 2.62640625 499.9609375 4.93640625 499.9609375 7.31640625 C497.60564452 8.49405274 496.21592569 8.44171576 493.58981323 8.44224739 C492.20091546 8.44615878 492.20091546 8.44615878 490.78395915 8.45014918 C489.75809931 8.44791861 488.73223947 8.44568805 487.67529297 8.44338989 C486.58815042 8.4449513 485.50100787 8.44651271 484.3809216 8.44812143 C480.69664263 8.45214449 477.01240435 8.44893844 473.328125 8.44580078 C470.67936459 8.44713566 468.03060697 8.44885903 465.38184738 8.45104218 C458.84577251 8.45548002 452.30970893 8.4544104 445.77363361 8.45157294 C440.34908028 8.44935082 434.92453068 8.44931214 429.49997711 8.45072556 C428.32887107 8.45102891 428.32887107 8.45102891 427.13410632 8.4513384 C425.54252062 8.45175911 423.95093492 8.45218377 422.35934922 8.45261233 C406.23128939 8.45665619 390.10323631 8.45308242 373.97517753 8.4469713 C362.44388306 8.44263225 350.9125898 8.44008495 339.38129458 8.43898287 C249.91212209 8.43016873 160.44368326 8.30568592 -108.0390625 7.31640625 C-108.08160606 5.31685879 -108.07987033 3.31598989 -108.0390625 1.31640625 C-107.0390625 0.31640625 -107.0390625 0.31640625 -103.54916382 0.20288086 C-101.95773454 0.20303074 -100.36630057 0.20880812 -98.77490234 0.21875 C-97.90817902 0.22021027 -97.04145569 0.22167053 -96.14846802 0.22317505 C-94.25885834 0.22699156 -92.36925229 0.23311904 -90.47965622 0.24124146 C-87.48680661 0.25396233 -84.49400115 0.26051045 -81.50112915 0.26538086 C-74.06139871 0.27878276 -66.62170971 0.3028983 -59.18200684 0.32678223 C-52.90822204 0.34653731 -46.63445317 0.36217369 -40.36064529 0.37234497 C-37.41653865 0.37881496 -34.47249714 0.39132789 -31.52841187 0.40405273 C-29.71213843 0.40768766 -27.8958644 0.41103909 -26.07958984 0.4140625 C-24.85734711 0.42181198 -24.85734711 0.42181198 -23.6104126 0.42971802 C-15.60759683 0.43045505 -8.02457886 -0.72251955 0 0 Z " fill="#050505" transform="translate(444.0390625,488.68359375)"/>
<path d="M0 0 C-0.33 10.23 -0.66 20.46 -1 31 C1.64 27.37 4.28 23.74 7 20 C8.9023624 17.52692887 10.80913744 15.06673032 12.75 12.625 C13.20503906 12.04878906 13.66007812 11.47257813 14.12890625 10.87890625 C15.00993596 9.76428941 15.89451554 8.65246614 16.78320312 7.54394531 C17.91663642 6.10577674 18.99966622 4.62827755 20.078125 3.1484375 C22.28421844 0.68227613 22.82124424 0.50178742 26 0 C28.54635479 -0.08298675 31.06393883 -0.11639258 33.609375 -0.09765625 C34.33618469 -0.0962413 35.06299438 -0.09482635 35.81182861 -0.09336853 C38.12459494 -0.08778792 40.43726312 -0.07523904 42.75 -0.0625 C44.32161318 -0.05748249 45.89322789 -0.05292002 47.46484375 -0.04882812 C51.30993343 -0.03782485 55.1549501 -0.02057361 59 0 C56.389153 8.56624617 52.75304173 16.64329354 49.125 24.8125 C47.89663253 27.58904849 46.67053888 30.36659541 45.4453125 33.14453125 C45.15045959 33.81219513 44.85560669 34.47985901 44.55181885 35.16775513 C41.94913734 41.0777501 39.45958165 47.02873429 37 53 C29.41 53 21.82 53 14 53 C14.89251329 49.42994682 16.01762763 46.4890228 17.50390625 43.140625 C17.99697266 42.02558594 18.49003906 40.91054688 18.99804688 39.76171875 C19.77245117 38.02341797 19.77245117 38.02341797 20.5625 36.25 C21.08263672 35.07566406 21.60277344 33.90132812 22.13867188 32.69140625 C23.42292903 29.79299101 24.71014084 26.89592551 26 24 C21.93850038 25.35383321 20.34924477 28.13306687 17.875 31.4375 C13.187422 37.55567706 8.30001073 43.39563222 3 49 C2.46761719 49.74507812 1.93523437 50.49015625 1.38671875 51.2578125 C-2.49257288 54.08950492 -6.58978495 53.41969971 -11.25 53.25 C-12.65378906 53.22292969 -12.65378906 53.22292969 -14.0859375 53.1953125 C-16.39167015 53.14825673 -18.69530945 53.08253713 -21 53 C-21.12375 52.360625 -21.2475 51.72125 -21.375 51.0625 C-21.58125 50.381875 -21.7875 49.70125 -22 49 C-22.99 48.505 -22.99 48.505 -24 48 C-23.34 47.34 -22.68 46.68 -22 46 C-21.62864085 43.47962036 -21.62864085 43.47962036 -21.5859375 40.5546875 C-21.54726562 39.47832031 -21.50859375 38.40195312 -21.46875 37.29296875 C-21.42234375 35.60107422 -21.42234375 35.60107422 -21.375 33.875 C-21.33632812 32.73933594 -21.29765625 31.60367188 -21.2578125 30.43359375 C-21.16332399 27.62256044 -21.07776459 24.81153767 -21 22 C-21.66 22 -22.32 22 -23 22 C-23.38800781 23.24652344 -23.77601563 24.49304688 -24.17578125 25.77734375 C-26.10423893 31.56271678 -28.62407446 37.03617029 -31.1875 42.5625 C-32.775625 46.006875 -34.36375 49.45125 -36 53 C-43.59 53 -51.18 53 -59 53 C-57.72125 50.215625 -56.4425 47.43125 -55.125 44.5625 C-50.93453567 35.36075072 -47.14648318 26.02542178 -43.53955078 16.58032227 C-38.36727846 3.28584905 -38.36727846 3.28584905 -35 0 C-31.89684327 -0.62919632 -30.1574011 -0.74074011 -27.125 -0.4375 C-25.61483843 -0.35703922 -24.10440065 -0.28162346 -22.59375 -0.2109375 C-21.45099609 -0.14471191 -21.45099609 -0.14471191 -20.28515625 -0.07714844 C-16.70855576 0.04360004 -13.1858759 -0.24908297 -9.625 -0.5625 C-3.32625319 -1.10875106 -3.32625319 -1.10875106 0 0 Z " fill="#010101" transform="translate(192,512)"/>
<path d="M0 0 C5.61169107 7.14215226 6.0625 12.70283239 6.0625 21.625 C0.1225 21.625 -5.8175 21.625 -11.9375 21.625 C-12.2675 22.285 -12.5975 22.945 -12.9375 23.625 C-13.10765625 23.07070313 -13.2778125 22.51640625 -13.453125 21.9453125 C-13.69546875 21.22085937 -13.9378125 20.49640625 -14.1875 19.75 C-14.41953125 19.03070313 -14.6515625 18.31140625 -14.890625 17.5703125 C-16.23830952 15.06603305 -17.26757789 14.54337746 -19.9375 13.625 C-22.39093022 13.31061516 -22.39093022 13.31061516 -24.9375 13.375 C-26.2059375 13.36726563 -26.2059375 13.36726563 -27.5 13.359375 C-30.11643298 13.64449911 -31.73809 14.19167663 -33.9375 15.625 C-35.05056874 18.87858555 -35.20161459 21.40725378 -33.9375 24.625 C-31.51646823 25.83551588 -29.73047478 25.8593223 -27.02734375 26.01953125 C-26.03669922 26.08849609 -25.04605469 26.15746094 -24.02539062 26.22851562 C-21.95310467 26.36598283 -19.88015636 26.4938597 -17.80664062 26.61132812 C-9.79322377 27.1951554 -3.3346954 28.81862119 2.9375 34 C7.57584979 39.72972621 8.54479857 44.35868399 8.4375 51.5 C8.44910156 52.26441406 8.46070313 53.02882813 8.47265625 53.81640625 C8.43833091 60.55561561 7.1411318 66.16346235 2.6875 71.4375 C-7.53850457 79.95917047 -20.09400602 80.49962407 -32.9375 79.625 C-42.82088896 78.37106354 -47.54604598 76.64380459 -54.125 69.125 C-57.02390103 63.52712214 -57.9375 56.93124319 -57.9375 50.625 C-50.6775 50.625 -43.4175 50.625 -35.9375 50.625 C-35.2775 52.935 -34.6175 55.245 -33.9375 57.625 C-28.91990835 60.30882809 -23.5979516 60.21621147 -18.125 59 C-15.67651756 57.72506581 -15.67651756 57.72506581 -14.5 54.75 C-13.71546149 51.73653184 -13.71546149 51.73653184 -14.625 49.3125 C-15.92305468 47.32164833 -15.92305468 47.32164833 -18.9375 46.625 C-20.53044281 46.45714641 -22.12792568 46.3304784 -23.7265625 46.23046875 C-24.66886719 46.16150391 -25.61117187 46.09253906 -26.58203125 46.02148438 C-28.54489552 45.88385235 -30.5084735 45.75599554 -32.47265625 45.63867188 C-40.12229066 45.0522345 -47.62926116 43.67178889 -52.875 37.625 C-58.57390918 29.33567756 -58.56927421 19.96651486 -57.4375 10.125 C-56.46880956 5.07973727 -54.77744039 2.63597527 -50.59375 -0.2890625 C-49.77390625 -0.82660156 -49.77390625 -0.82660156 -48.9375 -1.375 C-48.2775 -2.035 -47.6175 -2.695 -46.9375 -3.375 C-33.28768021 -7.51869529 -11.77477352 -9.52002966 0 0 Z " fill="#010101" transform="translate(935.9375,387.375)"/>
<path d="M0 0 C5.57489379 7.09531937 6.21416388 12.8284947 6.0625 21.625 C2.56084237 23.37582882 -1.66406398 22.65814834 -5.52734375 22.5859375 C-9.35753413 22.46079913 -9.35753413 22.46079913 -12.9375 23.625 C-13.31841797 22.66787109 -13.31841797 22.66787109 -13.70703125 21.69140625 C-14.05121094 20.86511719 -14.39539063 20.03882813 -14.75 19.1875 C-15.08644531 18.36378906 -15.42289062 17.54007812 -15.76953125 16.69140625 C-16.82153088 14.29127512 -16.82153088 14.29127512 -19.9375 13.625 C-24.68348472 13.3228212 -29.31425552 13.43190465 -33.9375 14.625 C-34.01846803 16.08242463 -34.07667774 17.54112807 -34.125 19 C-34.15980469 19.81210937 -34.19460938 20.62421875 -34.23046875 21.4609375 C-34.13378906 22.17507813 -34.03710938 22.88921875 -33.9375 23.625 C-30.87011202 25.66992532 -29.945809 25.90574923 -26.4375 26.1171875 C-25.55513672 26.18010986 -24.67277344 26.24303223 -23.76367188 26.30786133 C-22.83103516 26.37126709 -21.89839844 26.43467285 -20.9375 26.5 C-11.68285102 27.26361864 -3.4166872 28.15134462 4.125 34 C9.30804548 41.02219065 9.58613654 50.88162144 8.81640625 59.32421875 C7.62399418 65.53953475 5.00163032 70.26265349 0.0625 74.3125 C-10.58135065 81.30316462 -24.91830321 80.74951117 -37 78.8125 C-44.93923784 77.11879593 -49.99975271 73.82178184 -54.6875 67.125 C-56.60522544 61.75536877 -56.69377886 56.28941538 -56.9375 50.625 C-54.18784772 50.42988275 -51.43807868 50.24363567 -48.6875 50.0625 C-47.52154297 49.97838867 -47.52154297 49.97838867 -46.33203125 49.89257812 C-45.57792969 49.84423828 -44.82382812 49.79589844 -44.046875 49.74609375 C-43.35561523 49.6989624 -42.66435547 49.65183105 -41.95214844 49.60327148 C-39.9375 49.625 -39.9375 49.625 -35.9375 50.625 C-35.2775 53.265 -34.6175 55.905 -33.9375 58.625 C-31.70906512 58.82100577 -29.47970107 59.00646569 -27.25 59.1875 C-26.00863281 59.29191406 -24.76726562 59.39632812 -23.48828125 59.50390625 C-20.37914467 59.60993841 -17.92939028 59.39728525 -14.9375 58.625 C-14.16603241 54.25335032 -13.93235324 50.93596276 -14.9375 46.625 C-16.82082031 46.55152344 -16.82082031 46.55152344 -18.7421875 46.4765625 C-43.87581909 45.40202506 -43.87581909 45.40202506 -51.9375 38.625 C-58.14698238 30.98256014 -57.49711161 22.02847366 -56.9375 12.625 C-55.58834094 6.06769015 -52.34334359 1.45553317 -47.0625 -2.5625 C-34.99047281 -8.86763522 -10.88612421 -8.80154723 0 0 Z " fill="#010101" transform="translate(392.9375,387.375)"/>
<path d="M0 0 C5.68015788 7.28225369 5.08885784 13.0253584 5 22 C0.05 21.67 -4.9 21.34 -10 21 C-10 21.66 -10 22.32 -10 23 C-11.98 22.34 -13.96 21.68 -16 21 C-16 18.69 -16 16.38 -16 14 C-19.23275701 13.04469355 -22.19675639 12.83539622 -25.5625 12.8125 C-26.98755859 12.79123047 -26.98755859 12.79123047 -28.44140625 12.76953125 C-31.24225243 12.81641112 -31.24225243 12.81641112 -34 15 C-34.91399027 18.5797952 -35.17841928 20.46474216 -34 24 C-31.64491511 25.17754245 -29.96996904 25.2300181 -27.34375 25.39453125 C-26.40273438 25.46349609 -25.46171875 25.53246094 -24.4921875 25.60351562 C-22.5292857 25.74061125 -20.56571696 25.8685318 -18.6015625 25.98632812 C-10.34279002 26.61860542 -2.36036951 28.12117486 3.5 34.375 C9.26563843 41.44796342 8.58117142 50.38231749 8 59 C6.61929503 66.73410519 3.30300215 70.68789849 -3.125 75.1875 C-14.59493988 81.30645281 -30.82329127 80.08794966 -43 77 C-48.9532756 74.40668122 -53.23721097 70.64519589 -56.09375 64.73828125 C-57.69497668 59.90009203 -57.11116845 55.05816463 -57 50 C-50.07 50 -43.14 50 -36 50 C-35.34 52.31 -34.68 54.62 -34 57 C-31.13463414 59.53474672 -27.75582949 59.28962763 -24.03515625 59.19921875 C-20.88253856 58.89061318 -17.31004811 58.31004811 -15 56 C-14.92851801 54.64756083 -14.91600546 53.29165633 -14.9375 51.9375 C-14.958125 50.638125 -14.97875 49.33875 -15 48 C-18.04031507 46.26105016 -20.40247816 45.70550463 -23.88671875 45.5078125 C-24.82580078 45.44207031 -25.76488281 45.37632812 -26.73242188 45.30859375 C-28.68254538 45.18743604 -30.63308086 45.07271569 -32.58398438 44.96484375 C-40.46194205 44.39561163 -46.78927057 42.66422229 -52.9375 37.5625 C-58.62486097 30.49638485 -58.49567854 20.87667573 -57.61328125 12.1953125 C-57.13792057 9.11389649 -56.61434448 6.0564907 -56 3 C-55.34 3 -54.68 3 -54 3 C-53.2575 2.236875 -52.515 1.47375 -51.75 0.6875 C-40.86035595 -9.95465214 -11.2863451 -10.89921453 0 0 Z " fill="#010101" transform="translate(864,388)"/>
<path d="M0 0 C40.43768282 1.08397842 40.43768282 1.08397842 47 6 C49.07975033 8.97020062 49.18426603 11.02528643 48.6875 14.5625 C48.58824219 15.32691406 48.48898437 16.09132813 48.38671875 16.87890625 C48 19 48 19 47 22 C39.74 22 32.48 22 25 22 C24.67 20.35 24.34 18.7 24 17 C22.515 17.495 22.515 17.495 21 18 C21 17.34 21 16.68 21 16 C11.42706002 15.78132878 2.42332955 16.00111191 -7 18 C-7.495 20.475 -7.495 20.475 -8 23 C0.59606938 24.00133209 9.16368959 24.30439644 17.81054688 24.51757812 C34.40744193 25.05558145 34.40744193 25.05558145 41 30 C43.12266952 34.24533904 42.69273082 39.82015684 41.28125 44.26171875 C37.7796466 51.67438724 32.55834775 56.05837277 25 59 C16.39050996 61.56908406 7.38957206 62.15425036 -1.55078125 62.16796875 C-2.3308403 62.17129715 -3.11089935 62.17462555 -3.91459656 62.17805481 C-5.55235207 62.18307775 -7.19011765 62.18546458 -8.82788086 62.18530273 C-11.29623768 62.18748562 -13.76414396 62.20568124 -16.23242188 62.22460938 C-39.32319024 62.30884303 -39.32319024 62.30884303 -45.75 57.875 C-48.14128469 54.81946957 -48.62327186 53.0355598 -48.50390625 49.16015625 C-48 47 -48 47 -45 41 C-36.75 41 -28.5 41 -20 41 C-18.75453595 43.49092811 -19.2232422 44.41080733 -20 47 C-8.6370155 48.49724031 2.88547995 49.11986528 14 46 C14.33 44.35 14.66 42.7 15 41 C10.76044568 40.20570879 6.69699148 39.84548297 2.38671875 39.75390625 C1.13826172 39.72103516 -0.11019531 39.68816406 -1.39648438 39.65429688 C-3.99536016 39.5933756 -6.59432288 39.53605071 -9.19335938 39.48242188 C-28.03143188 38.96856812 -28.03143188 38.96856812 -34 33 C-36.1155851 28.7688298 -35.63736493 23.27746324 -34.38671875 18.80859375 C-31.36233682 12.00040359 -25.82620219 6.80451369 -18.875 4.125 C-12.75428945 2.37161543 -6.32721853 2.26100901 0 2 C0 1.34 0 0.68 0 0 Z " fill="#010101" transform="translate(211,448)"/>
<path d="M0 0 C10.89 0 21.78 0 33 0 C33.66 3.63 34.32 7.26 35 11 C35.73291491 13.8849053 36.48972605 16.73118307 37.3203125 19.5859375 C37.54026382 20.35831253 37.76021515 21.13068756 37.98683167 21.9264679 C38.45449577 23.5667241 38.92444928 25.20632911 39.39657593 26.8453064 C40.1364391 29.41472605 40.86959011 31.98597515 41.60083008 34.55786133 C42.59012984 38.03693635 43.58111905 41.51552074 44.57373047 44.99365234 C46.63386712 52.21879013 48.6701783 59.45030015 50.6875 66.6875 C51.02604004 67.88487793 51.36458008 69.08225586 51.71337891 70.31591797 C52.01808105 71.41178223 52.3227832 72.50764648 52.63671875 73.63671875 C52.90186279 74.58248779 53.16700684 75.52825684 53.44018555 76.50268555 C54 79 54 79 54 83 C46.74 83 39.48 83 32 83 C31.01 79.7 30.02 76.4 29 73 C28.01 72.505 28.01 72.505 27 72 C27 71.34 27 70.68 27 70 C19.41 70 11.82 70 4 70 C3.01 73.96 2.02 77.92 1 82 C-6.59 82 -14.18 82 -22 82 C-19.89085576 73.47513328 -17.74534016 64.96448989 -15.4921875 56.4765625 C-15.27846497 55.67071716 -15.06474243 54.86487183 -14.84454346 54.03460693 C-13.96627388 50.72613811 -13.08676673 47.41800863 -12.20361328 44.11083984 C-11.54707205 41.65012906 -10.89358934 39.18863853 -10.2421875 36.7265625 C-10.03680359 35.95193665 -9.83141968 35.17731079 -9.61981201 34.37921143 C-8.53626781 30.23787161 -7.58828565 26.11255918 -6.8203125 21.8984375 C-6.41425781 19.96871094 -6.41425781 19.96871094 -6 18 C-5.34 17.67 -4.68 17.34 -4 17 C-3.38006436 14.62225315 -3.38006436 14.62225315 -3 11.8125 C-2.34682743 7.54938258 -1.39842883 4.1952865 0 0 Z M16 19 C11.24943203 34.82235059 11.24943203 34.82235059 8 51 C13.28 51 18.56 51 24 51 C23.27960582 42.67160372 23.27960582 42.67160372 20 35 C19.76304698 33.3751793 19.53022755 31.74962828 19.3203125 30.12109375 C18.75409326 26.37161757 17.86202288 22.69079699 17 19 C16.67 19 16.34 19 16 19 Z " fill="#010101" transform="translate(750,383)"/>
<path d="M0 0 C19.47 0 38.94 0 59 0 C58.34 0.33 57.68 0.66 57 1 C57 6.61 57 12.22 57 18 C52.96090772 18.80781846 49.77042757 19.12859579 45.7109375 19.1328125 C44.52242187 19.13410156 43.33390625 19.13539063 42.109375 19.13671875 C40.87703125 19.13285156 39.6446875 19.12898438 38.375 19.125 C37.13492188 19.12886719 35.89484375 19.13273437 34.6171875 19.13671875 C32.83828125 19.13478516 32.83828125 19.13478516 31.0234375 19.1328125 C29.93981934 19.13168457 28.85620117 19.13055664 27.73974609 19.12939453 C25 19 25 19 22 18 C22.2475 19.3303125 22.2475 19.3303125 22.5 20.6875 C22.93052392 23.53972096 23 26.1305411 23 29 C23.33 29.66 23.66 30.32 24 31 C39.84 31.495 39.84 31.495 56 32 C55.01 32.495 55.01 32.495 54 33 C54.01160156 34.07121094 54.02320313 35.14242187 54.03515625 36.24609375 C54.04453299 37.64322743 54.05363331 39.04036299 54.0625 40.4375 C54.07087891 41.14455078 54.07925781 41.85160156 54.08789062 42.58007812 C54.09653588 44.38693559 54.05220011 46.19387603 54 48 C53 49 53 49 50.04077148 49.11352539 C48.74727783 49.10828857 47.45378418 49.10305176 46.12109375 49.09765625 C45.09110008 49.09553383 45.09110008 49.09553383 44.04029846 49.09336853 C41.83932199 49.08775479 39.63844591 49.07520007 37.4375 49.0625 C35.94856917 49.05748676 34.45963676 49.05292355 32.97070312 49.04882812 C29.31373195 49.03863021 25.65697883 49.01905779 22 49 C22 53.62 22 58.24 22 63 C33.55 63 45.1 63 57 63 C59.83235277 68.66470554 57.37190614 75.67759564 57 82 C38.19 82 19.38 82 0 82 C-0.04010881 64.6507117 -0.04010881 64.6507117 -0.04882812 57.26367188 C-0.05480927 52.22028554 -0.0618902 47.17691734 -0.07543945 42.13354492 C-0.08629315 38.06815199 -0.09228212 34.0027785 -0.09487724 29.93737221 C-0.096727 28.38521328 -0.10033904 26.83305544 -0.10573006 25.28090477 C-0.1129734 23.10936547 -0.11398954 20.93790683 -0.11352539 18.76635742 C-0.115746 17.52947678 -0.11796661 16.29259613 -0.12025452 15.01823425 C0 12 0 12 1 9 C0.34 8.67 -0.32 8.34 -1 8 C-0.34 8 0.32 8 1 8 C0.67 5.36 0.34 2.72 0 0 Z " fill="#010101" transform="translate(470,383)"/>
<path d="M0 0 C2.2178039 0.01078388 4.43480727 -0.00000136 6.65258789 -0.01269531 C28.74603246 -0.03437636 28.74603246 -0.03437636 35.02172852 5.26074219 C37.24743777 8.19722572 38.05031404 9.64499455 37.87719727 13.37402344 C37.25870768 16.33626302 36.6402181 19.2985026 36.02172852 22.26074219 C28.76172852 22.26074219 21.50172852 22.26074219 14.02172852 22.26074219 C13.52672852 23.74574219 13.52672852 23.74574219 13.02172852 25.26074219 C13.02172852 24.27074219 13.02172852 23.28074219 13.02172852 22.26074219 C12.36172852 21.93074219 11.70172852 21.60074219 11.02172852 21.26074219 C10.80516602 20.27074219 10.80516602 20.27074219 10.58422852 19.26074219 C10.39860352 18.60074219 10.21297852 17.94074219 10.02172852 17.26074219 C5.52816918 15.76288907 1.10428802 16.0354214 -3.60327148 16.01074219 C-5.04379883 15.97980469 -5.04379883 15.97980469 -6.51342773 15.94824219 C-12.73297787 15.91448615 -18.33268815 16.47469872 -23.97827148 19.26074219 C-26.56745117 21.6364844 -26.56745117 21.6364844 -27.97827148 24.26074219 C-27.97827148 24.92074219 -27.97827148 25.58074219 -27.97827148 26.26074219 C-28.63827148 26.26074219 -29.29827148 26.26074219 -29.97827148 26.26074219 C-30.96075672 30.31349378 -31.05986722 34.09935956 -30.97827148 38.26074219 C-25.90703836 40.29894115 -21.53939158 40.57632199 -16.16577148 40.51074219 C-15.36695557 40.50324951 -14.56813965 40.49575684 -13.74511719 40.48803711 C-3.64782201 40.4092119 -3.64782201 40.4092119 5.02172852 35.69824219 C5.68172852 34.89386719 6.34172852 34.08949219 7.02172852 33.26074219 C8.02172852 32.26074219 8.02172852 32.26074219 10.15478516 32.1472168 C11.07122803 32.15245361 11.9876709 32.15769043 12.93188477 32.16308594 C13.92124023 32.16630859 14.9105957 32.16953125 15.92993164 32.17285156 C16.97084961 32.18123047 18.01176758 32.18960938 19.08422852 32.19824219 C20.65140625 32.20500977 20.65140625 32.20500977 22.25024414 32.21191406 C24.84079511 32.22374306 27.4312341 32.24022529 30.02172852 32.26074219 C30.02172852 37.92415302 26.84388883 42.98304179 23.36547852 47.33105469 C11.96207851 58.49285723 -5.17519046 57.10052004 -19.97827148 57.26074219 C-21.01467773 57.27468018 -22.05108398 57.28861816 -23.11889648 57.30297852 C-28.77608088 57.346898 -34.24400962 57.19011231 -39.85327148 56.44824219 C-41.06756836 56.29742188 -42.28186523 56.14660156 -43.53295898 55.99121094 C-48.97902368 54.83654643 -53.64062303 52.72295234 -57.05249023 48.15527344 C-60.21614758 41.68112233 -58.01529449 34.84847493 -55.82128906 28.42016602 C-54.59638273 25.0100807 -53.30625024 21.63206922 -51.97827148 18.26074219 C-51.31827148 18.26074219 -50.65827148 18.26074219 -49.97827148 18.26074219 C-49.79264648 17.55949219 -49.60702148 16.85824219 -49.41577148 16.13574219 C-45.95551988 9.21523898 -39.4214723 6.02674688 -32.40966797 3.37304688 C-21.95767488 -0.01502004 -10.88510469 -0.06284284 0 0 Z " fill="#010101" transform="translate(179.978271484375,565.7392578125)"/>
<path d="M0 0 C19.8 0 39.6 0 60 0 C60 6.27 60 12.54 60 19 C55.64220019 19.87155996 52.09253894 20.10366859 47.6875 20.0625 C46.43324219 20.05347656 45.17898438 20.04445313 43.88671875 20.03515625 C42.93410156 20.02355469 41.98148437 20.01195312 41 20 C41.03029297 21.09650879 41.06058594 22.19301758 41.09179688 23.32275391 C41.6278327 42.886241 42.14391488 62.4275757 42 82 C34.74 82 27.48 82 20 82 C18.65950473 79.31900947 18.8801948 77.26688794 18.88647461 74.26513672 C18.88655014 73.06404266 18.88662567 71.86294861 18.88670349 70.62545776 C18.89186478 69.32335358 18.89702606 68.02124939 18.90234375 66.6796875 C18.90420862 65.33733167 18.9056322 63.99497516 18.90663147 62.65261841 C18.91045122 59.11804325 18.92027688 55.58350913 18.93133545 52.0489502 C18.94156122 48.44279536 18.94613159 44.8366339 18.95117188 41.23046875 C18.96189963 34.15362744 18.97949205 27.07682071 19 20 C12.73 20 6.46 20 0 20 C0 13.4 0 6.8 0 0 Z " fill="#010101" transform="translate(404,383)"/>
<path d="M0 0 C7.92 0 15.84 0 24 0 C24 27.06 24 54.12 24 82 C16.74 82 9.48 82 2 82 C1.32092697 78.60463483 0.87631893 76.21279844 0.90234375 72.8984375 C0.90556641 72.16109375 0.90878906 71.42375 0.91210938 70.6640625 C0.92048828 69.90867187 0.92886719 69.15328125 0.9375 68.375 C0.94201172 67.611875 0.94652344 66.84875 0.95117188 66.0625 C0.96358067 64.04163922 0.9814793 62.02081401 1 60 C1 57.60349694 0.99391464 55.20726222 0.98413086 52.81079102 C0.96601501 48.08521175 0.95453244 43.35963714 0.94506836 38.6340332 C0.94006248 36.60245235 0.93325578 34.57087505 0.92456055 32.53930664 C0.83429853 10.86049395 0.83429853 10.86049395 2 1 C1.34 0.67 0.68 0.34 0 0 Z " fill="#010101" transform="translate(536,383)"/>
<path d="M0 0 C3.125 0.375 3.125 0.375 6 1 C6 2.98 6 4.96 6 7 C14.58 7 23.16 7 32 7 C32.66 8.32 33.32 9.64 34 11 C37.02689417 10.49481236 37.02689417 10.49481236 39.25 8.5 C42.08888602 6.06666913 45.39151341 5.87721596 49 6 C53.05763553 7.50282797 54.58772494 8.38158741 57 12 C57.37890625 14.62890625 57.37890625 14.62890625 57.5625 17.5625 C57.73929053 21.42660649 57.73929053 21.42660649 59 25 C58.505 26.485 58.505 26.485 58 28 C58.99 27.67 59.98 27.34 61 27 C61.495 27.99 61.495 27.99 62 29 C58.17291493 30.80098121 55.22146566 31.28143104 51 31 C50.34 30.67 49.68 30.34 49 30 C46.77375407 30.3191623 46.77375407 30.3191623 44.375 30.9375 C43.55773437 31.13214844 42.74046875 31.32679688 41.8984375 31.52734375 C41.27195312 31.68332031 40.64546875 31.83929687 40 32 C40 31.34 40 30.68 40 30 C38.68 29.34 37.36 28.68 36 28 C35.50769231 21.6 35.50769231 21.6 38 18.5625 C38.66 18.046875 39.32 17.53125 40 17 C38.68 16.67 37.36 16.34 36 16 C35.505 17.485 35.505 17.485 35 19 C32.69 19.33 30.38 19.66 28 20 C27.505 18.515 27.505 18.515 27 17 C26.01 16.34 25.02 15.68 24 15 C23.67 19.95 23.34 24.9 23 30 C21.02 30.66 19.04 31.32 17 32 C16.34 31.67 15.68 31.34 15 31 C14.67 24.4 14.34 17.8 14 11 C13.34 11.99 12.68 12.98 12 14 C9 16 9 16 6 16 C6 18.64 6 21.28 6 24 C8.64 23.34 11.28 22.68 14 22 C13.34 24.31 12.68 26.62 12 29 C12.66 29.33 13.32 29.66 14 30 C11.35718479 30.8809384 8.76689789 31.17312268 6 31.3125 C5.34 31.34988281 4.68 31.38726563 4 31.42578125 C0.92013059 30.77010593 -0.16532636 29.52876478 -2 27 C-2.390625 23.546875 -2.390625 23.546875 -2.25 19.75 C-2.21390625 18.48671875 -2.1778125 17.2234375 -2.140625 15.921875 C-2.09421875 14.95765625 -2.0478125 13.9934375 -2 13 C-2.99 13.33 -3.98 13.66 -5 14 C-5.33 13.67 -5.66 13.34 -6 13 C-6.33 18.94 -6.66 24.88 -7 31 C-9.31 31 -11.62 31 -14 31 C-16.44064587 25.35600642 -16.19289099 20.02248522 -16 14 C-16.99 14.495 -16.99 14.495 -18 15 C-18.99 15.33 -19.98 15.66 -21 16 C-21 20.95 -21 25.9 -21 31 C-22.65 31 -24.3 31 -26 31 C-26.66 31.33 -27.32 31.66 -28 32 C-30.57445499 23.51944238 -29.78963144 15.69661657 -29 7 C-26 7 -23 7 -20 7 C-18.6078125 6.6596875 -18.6078125 6.6596875 -17.1875 6.3125 C-13.38081994 5.93929607 -12.0223996 6.77764735 -9 9 C-8.01 8.34 -7.02 7.68 -6 7 C-4.68 7 -3.36 7 -2 7 C-2.04125 6.21625 -2.0825 5.4325 -2.125 4.625 C-2 2 -2 2 0 0 Z M45 13 C44.67 13.66 44.34 14.32 44 15 C46.475 15.495 46.475 15.495 49 16 C48.67 15.01 48.34 14.02 48 13 C47.01 13 46.02 13 45 13 Z M42 16 C46 17 46 17 46 17 Z M48 21 C47.34 21.66 46.68 22.32 46 23 C46.99 23 47.98 23 49 23 C48.67 22.34 48.34 21.68 48 21 Z M44 23 C44 23.66 44 24.32 44 25 C44.99 24.67 45.98 24.34 47 24 C46.01 23.67 45.02 23.34 44 23 Z " fill="#070707" transform="translate(672,520)"/>
<path d="M0 0 C0.86625 0 1.7325 0 2.625 0 C3.40875 0 4.1925 0 5 0 C6 1 6 1 6.11352539 3.95922852 C6.10828857 5.25272217 6.10305176 6.54621582 6.09765625 7.87890625 C6.0962413 8.5655687 6.09482635 9.25223114 6.09336853 9.95970154 C6.08775479 12.16067801 6.07520007 14.36155409 6.0625 16.5625 C6.05748676 18.05143083 6.05292355 19.54036324 6.04882812 21.02929688 C6.03778093 24.68623075 6.02050713 28.34310558 6 32 C0.25 33.125 0.25 33.125 -2 32 C-2.281765 29.67616498 -2.45171684 27.33823176 -2.5625 25 C-2.38416046 20.67859865 -2.38416046 20.67859865 -4 17 C-5.65 21.95 -7.3 26.9 -9 32 C-16 33 -16 33 -19 31 C-19.44140625 29.08984375 -19.44140625 29.08984375 -19.5625 26.9375 C-19.706875 25.638125 -19.85125 24.33875 -20 23 C-20.66 22.67 -21.32 22.34 -22 22 C-22.04898437 22.69867187 -22.09796875 23.39734375 -22.1484375 24.1171875 C-22.22320312 25.02726563 -22.29796875 25.93734375 -22.375 26.875 C-22.44460938 27.77992188 -22.51421875 28.68484375 -22.5859375 29.6171875 C-23 32 -23 32 -25 34 C-25.99 33.67 -26.98 33.34 -28 33 C-28.99 33 -29.98 33 -31 33 C-32.455261 30.089478 -32.12985887 27.52443589 -32.1328125 24.27734375 C-32.13376923 23.61666397 -32.13472595 22.95598419 -32.13571167 22.27528381 C-32.13639216 20.87907821 -32.134547 19.48286944 -32.13037109 18.08666992 C-32.12501243 15.94247386 -32.13032479 13.79848647 -32.13671875 11.65429688 C-32.13605811 10.2994787 -32.13477725 8.94466066 -32.1328125 7.58984375 C-32.13168457 6.35097412 -32.13055664 5.11210449 -32.12939453 3.83569336 C-32 1 -32 1 -31 0 C-28.98035801 -0.07244053 -26.95832876 -0.08377188 -24.9375 -0.0625 C-23.28041016 -0.04896484 -23.28041016 -0.04896484 -21.58984375 -0.03515625 C-20.73519531 -0.02355469 -19.88054687 -0.01195312 -19 0 C-16.85289032 5.62338249 -14.86763181 11.27789404 -13 17 C-12.32586789 15.08594633 -11.6609668 13.16863974 -11 11.25 C-10.62875 10.18265625 -10.2575 9.1153125 -9.875 8.015625 C-8.81422523 4.88307438 -8.81422523 4.88307438 -9 1 C-3.375 -1.125 -3.375 -1.125 0 0 Z " fill="#060606" transform="translate(378,518)"/>
<path d="M0 0 C1.76537733 3.11537176 1.77207067 6.33176216 2.0625 9.875 C0.7425 10.205 -0.5775 10.535 -1.9375 10.875 C2.43984716 11.25020119 4.39327135 10.14642726 8.0625 7.875 C10.37941454 7.15333809 12.71098923 6.47440471 15.0625 5.875 C14.0725 5.545 13.0825 5.215 12.0625 4.875 C11.7325 5.535 11.4025 6.195 11.0625 6.875 C7.77835695 7.82567299 6.36556592 7.97602197 3.0625 6.875 C3.89032384 3.77066062 4.53757284 1.43881066 6.75 -0.9375 C10.53864438 -2.88302009 14.3065013 -3.44017925 18.5 -2.6875 C19.2734375 -2.4090625 19.2734375 -2.4090625 20.0625 -2.125 C20.0625 -1.465 20.0625 -0.805 20.0625 -0.125 C21.0525 0.205 22.0425 0.535 23.0625 0.875 C24.89365629 4.53731257 24.47645737 9.05217089 24.66796875 13.109375 C24.79937954 17.12251603 24.79937954 17.12251603 26.0625 20.875 C24.62524129 21.04373478 23.18768162 21.20990737 21.75 21.375 C20.94949219 21.4678125 20.14898438 21.560625 19.32421875 21.65625 C17.0625 21.875 17.0625 21.875 14.0625 21.875 C11.72685067 22.19169821 9.3931218 22.52320803 7.0625 22.875 C7.0625 22.215 7.0625 21.555 7.0625 20.875 C6.0725 20.545 5.0825 20.215 4.0625 19.875 C2.875 17.8125 2.875 17.8125 2.0625 15.875 C1.44375 16.679375 0.825 17.48375 0.1875 18.3125 C-2.03904316 20.9974491 -2.76408276 21.72962087 -6.14453125 22.1484375 C-13.24614514 22.42526203 -13.24614514 22.42526203 -17 19.4375 C-17.639375 18.591875 -18.27875 17.74625 -18.9375 16.875 C-19.2675 16.545 -19.5975 16.215 -19.9375 15.875 C-20.56195841 11.3061777 -20.95330999 6.78088454 -18.73828125 2.625 C-13.31342464 -3.93402059 -7.31287957 -4.24618814 0 0 Z M-9.9375 3.875 C-11.62614588 5.51209315 -11.62614588 5.51209315 -12.9375 7.875 C-12.71176109 11.06735272 -12.71176109 11.06735272 -11.9375 13.875 C-8.99020463 15.03311388 -8.99020463 15.03311388 -5.9375 14.875 C-4.90383852 11.12797715 -4.68016402 8.64700794 -5.9375 4.875 C-7.95258358 4.14176204 -7.95258358 4.14176204 -9.9375 3.875 Z M11.0625 12.875 C11.0625 13.865 11.0625 14.855 11.0625 15.875 C13.04741642 15.60823796 13.04741642 15.60823796 15.0625 14.875 C15.3925 13.885 15.7225 12.895 16.0625 11.875 C13.85168149 11.76959074 13.85168149 11.76959074 11.0625 12.875 Z " fill="#070606" transform="translate(537.9375,529.125)"/>
<path d="M0 0 C0.77988281 0.01869141 1.55976562 0.03738281 2.36328125 0.05664062 C8.05217458 0.23967458 8.05217458 0.23967458 9.25 1.4375 C9.32319621 4.13404854 9.34242537 6.80441458 9.3125 9.5 C9.30798828 10.25861328 9.30347656 11.01722656 9.29882812 11.79882812 C9.2870068 13.67841871 9.26907078 15.55796899 9.25 17.4375 C9.91 17.4375 10.57 17.4375 11.25 17.4375 C10.87956667 19.38001626 10.47763135 21.31654293 10.0625 23.25 C9.84207031 24.32894531 9.62164063 25.40789063 9.39453125 26.51953125 C7.9810542 30.12317411 6.74794473 30.90585556 3.25 32.4375 C-0.68939782 33.39850766 -4.70558943 33.4375 -8.75 33.4375 C-8.75 32.7775 -8.75 32.1175 -8.75 31.4375 C-9.74 31.1075 -10.73 30.7775 -11.75 30.4375 C-13.0625 27.625 -13.0625 27.625 -13.75 24.4375 C-12.875 22.0625 -12.875 22.0625 -11.75 20.4375 C-12.45125 19.798125 -13.1525 19.15875 -13.875 18.5 C-16.2358239 14.64398764 -15.77919646 13.05419938 -14.81640625 8.81640625 C-11.34461524 1.07164168 -8.10748014 -0.48535505 0 0 Z M-4.75 6.4375 C-7.31687367 10.2878105 -6.58288724 12.02319763 -5.75 16.4375 C-3.35280568 17.11708603 -3.35280568 17.11708603 -0.75 17.4375 C1.6221969 15.49291686 1.6221969 15.49291686 1.5625 11.9375 C1.459375 10.7825 1.35625 9.6275 1.25 8.4375 C-1.56509993 6.1601499 -1.56509993 6.1601499 -4.75 6.4375 Z M-9.75 22.4375 C-10.08 23.0975 -10.41 23.7575 -10.75 24.4375 C-9.76 24.4375 -8.77 24.4375 -7.75 24.4375 C-7.75 23.7775 -7.75 23.1175 -7.75 22.4375 C-8.41 22.4375 -9.07 22.4375 -9.75 22.4375 Z M-5.75 25.4375 C-5.75 25.7675 -5.75 26.0975 -5.75 26.4375 C-3.77 26.4375 -1.79 26.4375 0.25 26.4375 C0.58 25.1175 0.91 23.7975 1.25 22.4375 C-1.66694244 22.4375 -3.35776246 23.86365951 -5.75 25.4375 Z " fill="#070707" transform="translate(824.75,526.5625)"/>
<path d="M0 0 C2.9375 1.3125 2.9375 1.3125 5 3 C5.5775 3.433125 6.155 3.86625 6.75 4.3125 C8.55646948 6.7512338 8.74098442 9.02132088 9 12 C8 13 8 13 4.625 13.125 C1 13 1 13 -2 12 C-2 11.01 -2 10.02 -2 9 C-3.99954746 8.95745644 -6.00041636 8.95919217 -8 9 C-10.28748879 11.28748879 -9.9004623 15.91957015 -10 19 C-9.58184478 21.97514011 -9.58184478 21.97514011 -8 24 C-5.59889783 25.08024658 -5.59889783 25.08024658 -3 25 C0.24849977 23.27773504 0.24849977 23.27773504 1 20 C3.76264289 19.40267181 6.16032769 19 9 19 C8.63194444 26.23842593 8.63194444 26.23842593 5.5625 29.9375 C0.68820573 33.86071246 -3.90785838 33.61093511 -10 33 C-15.00401431 30.67670764 -17.05457011 28.11955234 -19 23 C-20.62577838 17.49736548 -19.68180114 12.38715979 -18 7 C-13.51189126 -0.18097398 -7.97704759 -0.85468367 0 0 Z M-1 9 C0 11 0 11 0 11 Z " fill="#070707" transform="translate(930,518)"/>
<path d="M0 0 C3.26347657 1.65827062 5.34380734 4.01571101 7.375 7.0625 C8 9 8 9 8 13 C5.36 13 2.72 13 0 13 C-0.226875 12.360625 -0.45375 11.72125 -0.6875 11.0625 C-1.85338976 8.77905218 -1.85338976 8.77905218 -4.4375 8.0625 C-6.97593989 7.76996732 -6.97593989 7.76996732 -8.75 9.0625 C-10.50124574 11.77693089 -10.8137195 13.77113805 -11 17 C-10.14703322 20.78059045 -10.14703322 20.78059045 -9 24 C-6.52221994 24.88492145 -5.33943414 25.11637742 -2.8125 24.25 C-0.68217062 23.04890402 -0.68217062 23.04890402 0 20 C3.96 19.505 3.96 19.505 8 19 C7.63194444 26.23842593 7.63194444 26.23842593 4.5625 29.9375 C-0.31588553 33.86400543 -4.90408818 33.60270315 -11 33 C-15.07665968 31.18006264 -16.55570737 29.72567796 -18.875 25.9375 C-21.03037993 19.9845459 -20.85835613 13.48471511 -18.8125 7.5625 C-13.84122339 0.53414342 -8.25859197 -1.13998969 0 0 Z " fill="#060606" transform="translate(609,518)"/>
<path d="M0 0 C2.64 0 5.28 0 8 0 C8.33 2.97 8.66 5.94 9 9 C9.86625 8.773125 10.7325 8.54625 11.625 8.3125 C15.73497042 7.93194718 17.57560719 8.77016282 21 11 C22.21784708 14.65354125 22.39436481 18.18773595 22.625 22 C22.70234375 23.08667969 22.70234375 23.08667969 22.78125 24.1953125 C22.98633739 27.4646468 23.04596895 29.86209314 22 33 C19.52260646 33.90837763 17.66420516 34 15 34 C13.9287172 27.97403427 13.90054585 22.11090483 14 16 C12.35 16.66 10.7 17.32 9 18 C8.67 22.62 8.34 27.24 8 32 C5.69 32.66 3.38 33.32 1 34 C1 33.34 1 32.68 1 32 C0.01 31.67 -0.98 31.34 -2 31 C-1.34 31 -0.68 31 0 31 C0 20.77 0 10.54 0 0 Z " fill="#080808" transform="translate(434,518)"/>
<path d="M0 0 C3.56555705 3.95973923 2.87806583 7.70926873 2.64453125 12.83984375 C2.62197266 13.77570312 2.59941406 14.7115625 2.57617188 15.67578125 C2.5173372 17.98210049 2.43520271 20.28515213 2.33203125 22.58984375 C-1.00130208 22.58984375 -4.33463542 22.58984375 -7.66796875 22.58984375 C-8.38984375 22.85796875 -9.11171875 23.12609375 -9.85546875 23.40234375 C-14.29088492 23.69803816 -17.16177076 21.10421402 -20.66796875 18.58984375 C-19.19104567 12.06676683 -19.19104567 12.06676683 -16.54296875 9.65234375 C-15.92421875 9.30171875 -15.30546875 8.95109375 -14.66796875 8.58984375 C-17.63796875 8.09484375 -17.63796875 8.09484375 -20.66796875 7.58984375 C-19.10405282 3.75114101 -16.79450615 1.28012012 -13.66796875 -1.41015625 C-8.8107056 -3.15378918 -4.5062304 -2.38177039 0 0 Z M-9.66796875 4.58984375 C-8.67796875 5.08484375 -8.67796875 5.08484375 -7.66796875 5.58984375 C-7.33796875 6.24984375 -7.00796875 6.90984375 -6.66796875 7.58984375 C-6.66796875 6.59984375 -6.66796875 5.60984375 -6.66796875 4.58984375 C-7.65796875 4.58984375 -8.64796875 4.58984375 -9.66796875 4.58984375 Z M-8.66796875 12.58984375 C-7.67796875 13.08484375 -7.67796875 13.08484375 -6.66796875 13.58984375 C-6.33796875 14.24984375 -6.00796875 14.90984375 -5.66796875 15.58984375 C-5.66796875 14.59984375 -5.66796875 13.60984375 -5.66796875 12.58984375 C-6.65796875 12.58984375 -7.64796875 12.58984375 -8.66796875 12.58984375 Z M-11.66796875 13.58984375 C-11.66796875 14.57984375 -11.66796875 15.56984375 -11.66796875 16.58984375 C-10.34796875 16.25984375 -9.02796875 15.92984375 -7.66796875 15.58984375 C-7.99796875 14.92984375 -8.32796875 14.26984375 -8.66796875 13.58984375 C-9.65796875 13.58984375 -10.64796875 13.58984375 -11.66796875 13.58984375 Z " fill="#080808" transform="translate(477.66796875,528.41015625)"/>
<path d="M0 0 C0.67160156 0.14824219 1.34320313 0.29648437 2.03515625 0.44921875 C4.68405427 1.65128541 5.52460582 2.75682376 6.9375 5.3125 C7.46019101 7.93993074 7.85202384 10.41287814 8.125 13.0625 C8.20685547 13.75988281 8.28871094 14.45726562 8.37304688 15.17578125 C8.57227133 16.88676776 8.75639929 18.59950037 8.9375 20.3125 C7.9475 19.9825 6.9575 19.6525 5.9375 19.3125 C5.751875 19.93125 5.56625 20.55 5.375 21.1875 C3.9375 23.3125 3.9375 23.3125 0.8125 24.75 C-3.93805332 25.43959645 -6.97421589 24.79861871 -11.0625 22.3125 C-13.80833491 18.9660137 -14.0625 17.7191945 -14.0625 13.3125 C-14.7225 12.9825 -15.3825 12.6525 -16.0625 12.3125 C-12.13560705 2.34905352 -12.13560705 2.34905352 -8.0625 0.3125 C-5.08040767 -0.65247768 -3.04394372 -0.7331271 0 0 Z M-5.0625 6.3125 C-5.0625 7.3025 -5.0625 8.2925 -5.0625 9.3125 C-3.4125 9.3125 -1.7625 9.3125 -0.0625 9.3125 C-0.0625 8.6525 -0.0625 7.9925 -0.0625 7.3125 C-1.7125 6.9825 -3.3625 6.6525 -5.0625 6.3125 Z M-7.0625 14.3125 C-6.7325 15.3025 -6.4025 16.2925 -6.0625 17.3125 C-4.4125 17.3125 -2.7625 17.3125 -1.0625 17.3125 C-0.7325 16.3225 -0.4025 15.3325 -0.0625 14.3125 C-2.3725 14.3125 -4.6825 14.3125 -7.0625 14.3125 Z " fill="#050405" transform="translate(401.0625,526.6875)"/>
<path d="M0 0 C3.46026478 3.46026478 4.26048006 6.31128468 4.4375 11.0625 C4.24761594 15.14194466 3.83035044 17.88661452 1 21 C-3.7577663 24.20872611 -7.43730765 24.79467034 -13 24 C-16.08940638 21.58021865 -17.75992074 18.72023778 -19 15 C-19.42039834 8.48382569 -18.70133041 5.43805688 -14.625 0.25 C-10.20725127 -3.14826825 -4.79334648 -2.15150207 0 0 Z M-9 5 C-11.1702792 6.7587364 -11.1702792 6.7587364 -11.23046875 8.91015625 C-11.53754032 12.76685951 -11.53754032 12.76685951 -10 16 C-7.5 16.16666667 -7.5 16.16666667 -5 16 C-3.10511048 14.10511048 -3.81980888 11.42860854 -3.76953125 8.91015625 C-3.8297208 6.7587364 -3.8297208 6.7587364 -6 5 C-6.99 5 -7.98 5 -9 5 Z " fill="#060606" transform="translate(637,528)"/>
<path d="M0 0 C3 0 6 0 9 0 C10.97673702 -0.12753142 12.95346392 -0.25537015 14.9296875 -0.390625 C18.04878002 0.19788302 19.12686832 1.47784463 21 4 C21.5390625 7.1640625 21.5390625 7.1640625 21.625 10.625 C21.49260302 15.3544754 21.49260302 15.3544754 24 19 C23.01 21.475 23.01 21.475 22 24 C15.125 25 15.125 25 14 25 C13.67 19.39 13.34 13.78 13 8 C11.35 7.67 9.7 7.34 8 7 C7.67 12.94 7.34 18.88 7 25 C4.69 24.67 2.38 24.34 0 24 C-0.66 21.69 -1.32 19.38 -2 17 C-1.34 17 -0.68 17 0 17 C0 11.39 0 5.78 0 0 Z " fill="#050505" transform="translate(787,527)"/>
<path d="M0 0 C3.5 0.125 3.5 0.125 4.5 1.125 C4.58726223 2.90571246 4.60699041 4.6898314 4.59765625 6.47265625 C4.59443359 7.55224609 4.59121094 8.63183594 4.58789062 9.74414062 C4.57951172 10.88044922 4.57113281 12.01675781 4.5625 13.1875 C4.55798828 14.32767578 4.55347656 15.46785156 4.54882812 16.64257812 C4.5369976 19.47007418 4.5190615 22.29754345 4.5 25.125 C9.12 25.125 13.74 25.125 18.5 25.125 C18.17 26.775 17.84 28.425 17.5 30.125 C18.16 30.455 18.82 30.785 19.5 31.125 C17.125 32.1875 17.125 32.1875 14.5 33.125 C13.84 32.795 13.18 32.465 12.5 32.125 C12.17 32.785 11.84 33.445 11.5 34.125 C11.5 33.465 11.5 32.805 11.5 32.125 C10.84 32.125 10.18 32.125 9.5 32.125 C9.17 32.785 8.84 33.445 8.5 34.125 C6.70793453 33.98415204 4.91635083 33.83716299 3.125 33.6875 C2.12726562 33.60628906 1.12953125 33.52507813 0.1015625 33.44140625 C-2.5 33.125 -2.5 33.125 -4.5 32.125 C-4.52465504 27.72843827 -4.54283842 23.3319128 -4.55493164 18.93530273 C-4.55997121 17.43855082 -4.56680287 15.94180384 -4.57543945 14.44506836 C-4.58752159 12.29800193 -4.59323191 10.15100038 -4.59765625 8.00390625 C-4.60289307 6.7104126 -4.60812988 5.41691895 -4.61352539 4.08422852 C-4.44973914 -0.18513307 -4.36816078 0.15600574 0 0 Z " fill="#080808" transform="translate(892.5,517.875)"/>
<path d="M0 0 C1.16581918 2.33163836 1.12905609 3.72153482 1.1328125 6.31640625 C1.13474609 7.58581055 1.13474609 7.58581055 1.13671875 8.88085938 C1.13285156 9.76580078 1.12898438 10.65074219 1.125 11.5625 C1.13080078 12.89571289 1.13080078 12.89571289 1.13671875 14.25585938 C1.13542969 15.10083984 1.13414062 15.94582031 1.1328125 16.81640625 C1.13168457 17.59443604 1.13055664 18.37246582 1.12939453 19.17407227 C1 21 1 21 0 22 C-1.98 22 -3.96 22 -6 22 C-6.33 16.39 -6.66 10.78 -7 5 C-8.65 5 -10.3 5 -12 5 C-12.33 10.61 -12.66 16.22 -13 22 C-15.31 22 -17.62 22 -20 22 C-20.97758625 16.54724114 -20.97344509 11.57483237 -20.5625 6.0625 C-20.51029297 5.28326172 -20.45808594 4.50402344 -20.40429688 3.70117188 C-20.27601936 1.80033228 -20.13892679 -0.09990904 -20 -2 C-17 -2 -14 -2 -11 -2 C-10.443125 -2.226875 -9.88625 -2.45375 -9.3125 -2.6875 C-5.67307871 -3.17931369 -3.19688372 -1.62860114 0 0 Z " fill="#040404" transform="translate(503,529)"/>
<path d="M0 0 C3.37322289 2.6236178 4.78800569 4.13571549 5.8125 8.3125 C5.874375 9.199375 5.93625 10.08625 6 11 C4.0625 11.5625 4.0625 11.5625 2 12 C1.67 11.67 1.34 11.34 1 11 C0.01 11.495 0.01 11.495 -1 12 C-1.66 10.02 -2.32 8.04 -3 6 C-4.65 6.33 -6.3 6.66 -8 7 C-8 9.64 -8 12.28 -8 15 C-6.68 15.66 -5.36 16.32 -4 17 C-3.67 16.34 -3.34 15.68 -3 15 C-0.04335481 13.5216774 2.74229737 13.93967217 6 14 C5.70992229 17.38423992 5.0005775 18.99923 2.9375 21.75 C-0.70419834 24.53938596 -3.43023607 25.43905575 -8 25 C-12.06883138 23.15751032 -13.652102 21.58357084 -15.9375 17.75 C-17.26747377 13.05597494 -17.14633444 10.73818235 -16 6 C-14.02584057 2.63661727 -12.64003813 1.30610519 -9.125 -0.375 C-5.55939281 -1.08812144 -3.46889967 -1.10709564 0 0 Z " fill="#070707" transform="translate(748,527)"/>
<path d="M0 0 C2.5 2.4375 2.5 2.4375 4 5 C3.9375 7.25 3.9375 7.25 3 9 C0.66682784 9.77772405 -1.61435923 10.42415568 -4 11 C-4.66 9.02 -5.32 7.04 -6 5 C-7.32 5.33 -8.64 5.66 -10 6 C-10.93065133 8.60582371 -11.14917407 9.64198224 -10.0625 12.25 C-9.711875 12.8275 -9.36125 13.405 -9 14 C-6.24358584 13.50243908 -6.24358584 13.50243908 -4 12 C-1.66702567 11.95907063 0.66705225 11.95758277 3 12 C2.74424065 15.75113712 2.43589349 17.53919831 -0.1875 20.3125 C-3.35544289 22.21326574 -5.30519651 22.92459585 -9 23 C-13.6279156 21.33395038 -16.56736272 19.30389672 -19 15 C-19.70357659 10.6520548 -19.52219733 7.14386081 -17.6875 3.125 C-16.8521875 2.073125 -16.8521875 2.073125 -16 1 C-15.566875 0.4225 -15.13375 -0.155 -14.6875 -0.75 C-9.67171809 -4.46539401 -5.03890456 -2.79939142 0 0 Z " fill="#060606" transform="translate(429,529)"/>
<path d="M0 0 C1.4540625 0.0309375 1.4540625 0.0309375 2.9375 0.0625 C3.2675 1.7125 3.5975 3.3625 3.9375 5.0625 C6.9075 5.5575 6.9075 5.5575 9.9375 6.0625 C9.9375 8.0425 9.9375 10.0225 9.9375 12.0625 C8.6175 12.3925 7.2975 12.7225 5.9375 13.0625 C5.9375 13.7225 5.9375 14.3825 5.9375 15.0625 C4.9475 15.0625 3.9575 15.0625 2.9375 15.0625 C3.2675 17.7025 3.5975 20.3425 3.9375 23.0625 C4.5975 23.0625 5.2575 23.0625 5.9375 23.0625 C6.2675 22.4025 6.5975 21.7425 6.9375 21.0625 C8.5875 21.0625 10.2375 21.0625 11.9375 21.0625 C11.751875 21.825625 11.56625 22.58875 11.375 23.375 C10.70930827 26.15217375 10.70930827 26.15217375 11.9375 29.0625 C7.49272251 30.17369437 3.49303378 30.35640541 -1.0625 30.0625 C-3.7179175 28.31079102 -4.04589591 27.13962553 -4.72265625 23.99609375 C-4.85542969 22.84238281 -4.98820313 21.68867187 -5.125 20.5 C-5.46216839 15.75232811 -5.46216839 15.75232811 -8.0625 12.0625 C-8.46014263 10.07428687 -8.80025349 8.07305661 -9.0625 6.0625 C-7.7425 6.0625 -6.4225 6.0625 -5.0625 6.0625 C-4.918125 5.258125 -4.77375 4.45375 -4.625 3.625 C-3.8465 0.0785 -3.8465 0.0785 0 0 Z " fill="#080808" transform="translate(762.0625,520.9375)"/>
<path d="M0 0 C6 0 6 0 8 1 C8 8.92 8 16.84 8 25 C12.62 25 17.24 25 22 25 C21.67 27.64 21.34 30.28 21 33 C18.03 33.495 18.03 33.495 15 34 C15 33.34 15 32.68 15 32 C13.4375 32.26041667 11.875 32.52083333 10.3125 32.78125 C6.88950733 33.1050466 3.43827327 33 0 33 C0 22.11 0 11.22 0 0 Z " fill="#040404" transform="translate(865,518)"/>
<path d="M0 0 C2.97 0.495 2.97 0.495 6 1 C6 11.89 6 22.78 6 34 C2.29847322 34.92538169 1.36541838 35.08174162 -2 34 C-2.049377 29.47934572 -2.08570823 24.95884783 -2.10986328 20.43798828 C-2.11993118 18.89954902 -2.13358646 17.36112893 -2.15087891 15.82275391 C-2.17509317 13.61355867 -2.18647491 11.40461605 -2.1953125 9.1953125 C-2.20563507 8.50567413 -2.21595764 7.81603577 -2.22659302 7.10549927 C-2.22699478 5.40199094 -2.12191026 3.69914057 -2 2 C-1.34 1.34 -0.68 0.68 0 0 Z " fill="#070707" transform="translate(567,517)"/>
<path d="M0 0 C2.375 -0.125 2.375 -0.125 5 0 C7 2 7 2 7.1875 4.5 C7 7 7 7 6 9 C6.33984492 12.05860432 6.67780158 15.00118488 7.625 17.9375 C8.12952523 20.71238876 7.66132733 23.25964584 7.2578125 26.02734375 C6.9523844 28.36433152 6.92644505 30.64624154 7 33 C0.125 35 0.125 35 -1 35 C-1.33 26.75 -1.66 18.5 -2 10 C0 9 0 9 2 9 C1.01 8.67 0.02 8.34 -1 8 C-1 6.68 -1 5.36 -1 4 C-1.66 3.67 -2.32 3.34 -3 3 C-2.34 3 -1.68 3 -1 3 C-0.67 2.01 -0.34 1.02 0 0 Z " fill="#060606" transform="translate(509,517)"/>
<path d="M0 0 C0.16888623 2.70821126 0.33517601 5.41654097 0.5 8.125 C0.54769531 8.88554688 0.59539063 9.64609375 0.64453125 10.4296875 C1.20228342 19.67243774 1.20228342 19.67243774 1 23 C0.34 23.66 -0.32 24.32 -1 25 C-1.66 24.67 -2.32 24.34 -3 24 C-4.32 24 -5.64 24 -7 24 C-7.19533059 20.9378174 -7.38153284 17.87553679 -7.5625 14.8125 C-7.61857422 13.94818359 -7.67464844 13.08386719 -7.73242188 12.19335938 C-8.22314453 3.65478516 -8.22314453 3.65478516 -7 0 C-4.3333581 -1.33332095 -2.83319697 -0.67102033 0 0 Z " fill="#060606" transform="translate(782,527)"/>
<path d="M0 0 C3 0.3125 3 0.3125 6 1 C7.6124054 4.22481079 7.60679502 7.51415624 7 11 C5.56130936 13.39446415 3.99797988 15.00202012 2 17 C0.68 16.67 -0.64 16.34 -2 16 C-2 12 -2 12 0 10 C-0.66 9.34 -1.32 8.68 -2 8 C-1.42307692 1.42307692 -1.42307692 1.42307692 0 0 Z " fill="#0C0C0C" transform="translate(839,541)"/>
<path d="M0 0 C2.375 -0.125 2.375 -0.125 5 0 C7 2 7 2 7.1875 4.375 C7.02008693 6.71878304 6.66556367 8.75372262 6 11 C3.36 11 0.72 11 -2 11 C-1.34 10.34 -0.68 9.68 0 9 C0.66 9 1.32 9 2 9 C1.01 8.67 0.02 8.34 -1 8 C-1 6.68 -1 5.36 -1 4 C-1.66 3.67 -2.32 3.34 -3 3 C-2.34 3 -1.68 3 -1 3 C-0.67 2.01 -0.34 1.02 0 0 Z " fill="#101010" transform="translate(509,517)"/>
<path d="M0 0 C0 9.9 0 19.8 0 30 C-0.33 30 -0.66 30 -1 30 C-1 20.43 -1 10.86 -1 1 C-5.66358737 1.09683952 -10.32626504 1.19950359 -14.98925781 1.31738281 C-16.57609138 1.35570585 -18.16301281 1.39055288 -19.75 1.421875 C-22.02896566 1.46745431 -24.30732468 1.52545838 -26.5859375 1.5859375 C-27.65320572 1.60326431 -27.65320572 1.60326431 -28.74203491 1.62094116 C-32.82103657 1.63408239 -32.82103657 1.63408239 -36 4 C-36 2.68 -36 1.36 -36 0 C-31.87548357 -0.19931095 -27.75039053 -0.38226449 -23.625 -0.5625 C-21.89056641 -0.64661133 -21.89056641 -0.64661133 -20.12109375 -0.73242188 C-18.98027344 -0.78076172 -17.83945312 -0.82910156 -16.6640625 -0.87890625 C-15.10872803 -0.94960327 -15.10872803 -0.94960327 -13.52197266 -1.02172852 C-9.0018857 -0.99384222 -4.49774022 -0.44977402 0 0 Z " fill="#0F1010" transform="translate(725,417)"/>
<path d="M0 0 C2.33944736 0.28730055 4.6739143 0.61936779 7 1 C7.625 2.8125 7.625 2.8125 8 5 C7.01 6.485 7.01 6.485 6 8 C2.9375 8.25 2.9375 8.25 0 8 C-1 7 -1 7 -1.125 4 C-1 1 -1 1 0 0 Z " fill="#0B0B0B" transform="translate(776,517)"/>
<path d="M0 0 C1.125 3.75 1.125 3.75 0 6 C0.99 6 1.98 6 3 6 C3 6.66 3 7.32 3 8 C2.34 8 1.68 8 1 8 C0.67 8.99 0.34 9.98 0 11 C0 10.01 0 9.02 0 8 C-1.98 8 -3.96 8 -6 8 C-6.33 8.66 -6.66 9.32 -7 10 C-7.33 9.01 -7.66 8.02 -8 7 C-7.34 6.01 -6.68 5.02 -6 4 C-6 3.01 -6 2.02 -6 1 C-3.03 1.495 -3.03 1.495 0 2 C0 1.34 0 0.68 0 0 Z " fill="#1D1D1C" transform="translate(539,534)"/>
<path d="M0 0 C1.32 0 2.64 0 4 0 C3.67 1.32 3.34 2.64 3 4 C4.051875 3.79375 5.10375 3.5875 6.1875 3.375 C9.99624887 3.00036896 11.66835752 3.28369933 15 5 C12.5735637 6.52775619 11.39107497 7.04888437 8.5 6.6875 C7.675 6.460625 6.85 6.23375 6 6 C5.236875 5.814375 4.47375 5.62875 3.6875 5.4375 C3.130625 5.293125 2.57375 5.14875 2 5 C1.67 5.99 1.34 6.98 1 8 C-1.31 8.33 -3.62 8.66 -6 9 C-6 8.34 -6 7.68 -6 7 C-4.02 7 -2.04 7 0 7 C0 4.69 0 2.38 0 0 Z " fill="#1E1D1D" transform="translate(706,531)"/>
<path d="M0 0 C0.33 0 0.66 0 1 0 C1.33 3.63 1.66 7.26 2 11 C1.01 10.34 0.02 9.68 -1 9 C-0.67 8.34 -0.34 7.68 0 7 C-1.051875 7.33 -2.10375 7.66 -3.1875 8 C-6.38873357 8.83966782 -8.7411008 9.19750904 -12 9 C-11.01 8.01 -10.02 7.02 -9 6 C-10.65 5.67 -12.3 5.34 -14 5 C-14 4.67 -14 4.34 -14 4 C-9.38 4 -4.76 4 0 4 C0 2.68 0 1.36 0 0 Z " fill="#1C1C1D" transform="translate(408,536)"/>
<path d="M0 0 C0.66 0.33 1.32 0.66 2 1 C1.6875 2.9375 1.6875 2.9375 1 5 C-1.33317216 5.77772405 -3.61435923 6.42415568 -6 7 C-6.33 5.02 -6.66 3.04 -7 1 C-6.67 1.66 -6.34 2.32 -6 3 C-4.02 3 -2.04 3 0 3 C0 2.01 0 1.02 0 0 Z " fill="#181919" transform="translate(431,533)"/>
<path d="M0 0 C0.66 1.32 1.32 2.64 2 4 C1.34 3.67 0.68 3.34 0 3 C0 2.01 0 1.02 0 0 Z " fill="#292828" transform="translate(83,596)"/>
<path d="M0 0 C0.99 0.33 1.98 0.66 3 1 C2.01 1.33 1.02 1.66 0 2 C0 1.34 0 0.68 0 0 Z " fill="#212222" transform="translate(176,677)"/>
<path d="M0 0 C0.66 0 1.32 0 2 0 C2 0.66 2 1.32 2 2 C1.34 2 0.68 2 0 2 C0 1.34 0 0.68 0 0 Z " fill="#242322" transform="translate(834,552)"/>
<path d="M0 0 C1 4 1 4 1 4 Z " fill="#1C1C1E" transform="translate(563,540)"/>
<path d="M0 0 C1 4 1 4 1 4 Z " fill="#0F0F10" transform="translate(169,537)"/>
<path d="M0 0 C4 1 4 1 4 1 Z " fill="#191A1A" transform="translate(612,536)"/>
<path d="M0 0 C0.66 0.66 1.32 1.32 2 2 C1.34 2 0.68 2 0 2 C0 1.34 0 0.68 0 0 Z " fill="#272728" transform="translate(112,640)"/>
<path d="M0 0 C0.66 0.66 1.32 1.32 2 2 C1.34 2 0.68 2 0 2 C0 1.34 0 0.68 0 0 Z " fill="#121111" transform="translate(195,589)"/>
<path d="M0 0 C0.33 0.66 0.66 1.32 1 2 C0.34 1.67 -0.32 1.34 -1 1 C-0.67 0.67 -0.34 0.34 0 0 Z " fill="#262627" transform="translate(77,566)"/>
<path d="M0 0 C3 1 3 1 3 1 Z " fill="#272626" transform="translate(837,559)"/>
<path d="M0 0 C0.66 0.66 1.32 1.32 2 2 C1.34 2 0.68 2 0 2 C0 1.34 0 0.68 0 0 Z " fill="#232323" transform="translate(917,550)"/>
<path d="M0 0 C0.66 0 1.32 0 2 0 C1.67 0.66 1.34 1.32 1 2 C0.67 1.34 0.34 0.68 0 0 Z " fill="#1F1F20" transform="translate(505,544)"/>
<path d="M0 0 C3 1 3 1 3 1 Z " fill="#1D1D1C" transform="translate(898,541)"/>
<path d="" fill="#1E1C1E" transform="translate(0,0)"/>
<path d="M0 0 C0.66 0 1.32 0 2 0 C1.67 0.66 1.34 1.32 1 2 C0.67 1.34 0.34 0.68 0 0 Z " fill="#1E1D1D" transform="translate(529,538)"/>
<path d="" fill="#1F1F20" transform="translate(0,0)"/>
<path d="" fill="#1F1F1F" transform="translate(0,0)"/>
<path d="M0 0 C0.66 0 1.32 0 2 0 C1.67 0.66 1.34 1.32 1 2 C0.67 1.34 0.34 0.68 0 0 Z " fill="#1F1E20" transform="translate(560,528)"/>
<path d="M0 0 C3 1 3 1 3 1 Z " fill="#121012" transform="translate(235,471)"/>
<path d="M0 0 C3 1 3 1 3 1 Z " fill="#252524" transform="translate(107,465)"/>
<path d="M0 0 C3 1 3 1 3 1 Z " fill="#121011" transform="translate(199,449)"/>
<path d="M0 0 C3 1 3 1 3 1 Z " fill="#131212" transform="translate(522,444)"/>
<path d="" fill="#101110" transform="translate(0,0)"/>
<path d="M0 0 C0.33 0.66 0.66 1.32 1 2 C0.34 1.67 -0.32 1.34 -1 1 C-0.67 0.67 -0.34 0.34 0 0 Z " fill="#121012" transform="translate(699,440)"/>
<path d="M0 0 C3 1 3 1 3 1 Z " fill="#131414" transform="translate(882,436)"/>
<path d="M0 0 C3 1 3 1 3 1 Z " fill="#111111" transform="translate(369,434)"/>
<path d="" fill="#19191A" transform="translate(0,0)"/>
<path d="" fill="#2F3132" transform="translate(0,0)"/>
<path d="" fill="#252424" transform="translate(0,0)"/>
<path d="M0 0 C2 1 2 1 2 1 Z " fill="#2A2B2C" transform="translate(104,633)"/>
<path d="" fill="#201F1F" transform="translate(0,0)"/>
<path d="M0 0 C2 1 2 1 2 1 Z " fill="#100F10" transform="translate(171,582)"/>
<path d="M0 0 C2 1 2 1 2 1 Z " fill="#131313" transform="translate(124,569)"/>
<path d="M0 0 C2 1 2 1 2 1 Z " fill="#131111" transform="translate(145,568)"/>
<path d="M0 0 C2 1 2 1 2 1 Z " fill="#0E0E10" transform="translate(211,566)"/>
<path d="M0 0 C2 1 2 1 2 1 Z " fill="#111111" transform="translate(147,566)"/>
<path d="" fill="#201E1F" transform="translate(0,0)"/>
<path d="" fill="#1F1F21" transform="translate(0,0)"/>
<path d="" fill="#0F0F0E" transform="translate(0,0)"/>
<path d="M0 0 C2 1 2 1 2 1 Z " fill="#211F20" transform="translate(754,545)"/>
<path d="" fill="#1F1F1E" transform="translate(0,0)"/>
<path d="M0 0 C2 1 2 1 2 1 Z " fill="#1D1D1E" transform="translate(356,543)"/>
<path d="M0 0 C2 1 2 1 2 1 Z " fill="#1D1C1D" transform="translate(903,541)"/>
<path d="M0 0 C2 1 2 1 2 1 Z " fill="#1B1C1A" transform="translate(880,541)"/>
<path d="M0 0 C2 1 2 1 2 1 Z " fill="#1C1B1C" transform="translate(875,541)"/>
<path d="" fill="#1A1B1A" transform="translate(0,0)"/>
<path d="M0 0 C2 1 2 1 2 1 Z " fill="#1C1C1D" transform="translate(751,539)"/>
<path d="" fill="#1C1D1D" transform="translate(0,0)"/>
<path d="" fill="#1D1E1D" transform="translate(0,0)"/>
<path d="" fill="#1F1F20" transform="translate(0,0)"/>
<path d="" fill="#1F1D1F" transform="translate(0,0)"/>
<path d="M0 0 C2 1 2 1 2 1 Z " fill="#1D1C1C" transform="translate(480,532)"/>
<path d="" fill="#1E1D1D" transform="translate(0,0)"/>
<path d="" fill="#1F1E1D" transform="translate(0,0)"/>
<path d="" fill="#1E1F20" transform="translate(0,0)"/>
<path d="" fill="#161717" transform="translate(0,0)"/>
<path d="M0 0 C2 1 2 1 2 1 Z " fill="#1F1C1C" transform="translate(733,528)"/>
<path d="" fill="#121010" transform="translate(0,0)"/>
<path d="M0 0 C2 1 2 1 2 1 Z " fill="#1D1E1E" transform="translate(827,525)"/>
<path d="" fill="#1F1F1F" transform="translate(0,0)"/>
<path d="M0 0 C2 1 2 1 2 1 Z " fill="#1D1F1E" transform="translate(417,525)"/>
<path d="" fill="#1E1F1E" transform="translate(0,0)"/>
<path d="M0 0 C2 1 2 1 2 1 Z " fill="#10100F" transform="translate(196,511)"/>
<path d="M0 0 C2 1 2 1 2 1 Z " fill="#110F0E" transform="translate(244,471)"/>
<path d="" fill="#141615" transform="translate(0,0)"/>
<path d="" fill="#151516" transform="translate(0,0)"/>
<path d="" fill="#131315" transform="translate(0,0)"/>
<path d="M0 0 C2 1 2 1 2 1 Z " fill="#121110" transform="translate(243,448)"/>
<path d="M0 0 C2 1 2 1 2 1 Z " fill="#11100E" transform="translate(493,444)"/>
<path d="M0 0 C2 1 2 1 2 1 Z " fill="#100F10" transform="translate(230,444)"/>
<path d="M0 0 C2 1 2 1 2 1 Z " fill="#110F11" transform="translate(225,444)"/>
<path d="" fill="#0F1010" transform="translate(0,0)"/>
<path d="" fill="#101011" transform="translate(0,0)"/>
<path d="M0 0 C2 1 2 1 2 1 Z " fill="#111012" transform="translate(812,436)"/>
<path d="M0 0 C2 1 2 1 2 1 Z " fill="#151415" transform="translate(343,436)"/>
<path d="M0 0 C2 1 2 1 2 1 Z " fill="#100F11" transform="translate(768,432)"/>
<path d="" fill="#101011" transform="translate(0,0)"/>
<path d="M0 0 C2 1 2 1 2 1 Z " fill="#121312" transform="translate(882,426)"/>
<path d="" fill="#0F1111" transform="translate(0,0)"/>
<path d="" fill="#0F0F0F" transform="translate(0,0)"/>
<path d="" fill="#111111" transform="translate(0,0)"/>
<path d="M0 0 C2 1 2 1 2 1 Z " fill="#100F0F" transform="translate(594,420)"/>
<path d="" fill="#141513" transform="translate(0,0)"/>
<path d="M0 0 C2 1 2 1 2 1 Z " fill="#121213" transform="translate(377,413)"/>
<path d="M0 0 C2 1 2 1 2 1 Z " fill="#121213" transform="translate(719,411)"/>
<path d="M0 0 C2 1 2 1 2 1 Z " fill="#101212" transform="translate(421,404)"/>
<path d="M0 0 C2 1 2 1 2 1 Z " fill="#131314" transform="translate(401,400)"/>
<path d="" fill="#121210" transform="translate(0,0)"/>
<path d="" fill="#151615" transform="translate(0,0)"/>
<path d="" fill="#222222" transform="translate(0,0)"/>
<path d="M0 0 C2 1 2 1 2 1 Z " fill="#222021" transform="translate(546,381)"/>
<path d="M0 0 C2 1 2 1 2 1 Z " fill="#202221" transform="translate(482,381)"/>
<path d="M0 0 C2 1 2 1 2 1 Z " fill="#222220" transform="translate(699,380)"/>
<path d="" fill="#211F22" transform="translate(0,0)"/>
<path d="" fill="#242524" transform="translate(0,0)"/>
<path d="" fill="#57595A" transform="translate(0,0)"/>
<path d="" fill="#535454" transform="translate(0,0)"/>
<path d="" fill="#595B5C" transform="translate(0,0)"/>
<path d="" fill="#4B4C4C" transform="translate(0,0)"/>
<path d="" fill="#4A4A4C" transform="translate(0,0)"/>
<path d="" fill="#434444" transform="translate(0,0)"/>
<path d="" fill="#595A58" transform="translate(0,0)"/>
<path d="" fill="#58585A" transform="translate(0,0)"/>
<path d="" fill="#595959" transform="translate(0,0)"/>
<path d="" fill="#5B5B5C" transform="translate(0,0)"/>
<path d="" fill="#4A4A4A" transform="translate(0,0)"/>
<path d="" fill="#585A58" transform="translate(0,0)"/>
<path d="" fill="#575658" transform="translate(0,0)"/>
<path d="" fill="#5A5C5B" transform="translate(0,0)"/>
<path d="" fill="#424343" transform="translate(0,0)"/>
<path d="" fill="#4F4D4D" transform="translate(0,0)"/>
<path d="" fill="#595B5C" transform="translate(0,0)"/>
<path d="" fill="#5A5C5D" transform="translate(0,0)"/>
<path d="" fill="#454446" transform="translate(0,0)"/>
<path d="" fill="#5B5C5B" transform="translate(0,0)"/>
<path d="" fill="#5D5D5D" transform="translate(0,0)"/>
<path d="" fill="#545353" transform="translate(0,0)"/>
<path d="" fill="#5E5D5E" transform="translate(0,0)"/>
<path d="" fill="#4E4E4D" transform="translate(0,0)"/>
<path d="" fill="#59575A" transform="translate(0,0)"/>
<path d="" fill="#4C4D4E" transform="translate(0,0)"/>
<path d="" fill="#5E5D5D" transform="translate(0,0)"/>
<path d="" fill="#606062" transform="translate(0,0)"/>
<path d="" fill="#5F5F60" transform="translate(0,0)"/>
<path d="" fill="#626361" transform="translate(0,0)"/>
<path d="" fill="#5A5B5D" transform="translate(0,0)"/>
<path d="" fill="#5C5B5D" transform="translate(0,0)"/>
<path d="" fill="#5F5E5F" transform="translate(0,0)"/>
<path d="" fill="#1E1D1D" transform="translate(0,0)"/>
<path d="" fill="#202122" transform="translate(0,0)"/>
<path d="" fill="#252625" transform="translate(0,0)"/>
<path d="" fill="#242624" transform="translate(0,0)"/>
<path d="" fill="#232223" transform="translate(0,0)"/>
<path d="" fill="#202322" transform="translate(0,0)"/>
<path d="" fill="#242423" transform="translate(0,0)"/>
<path d="" fill="#242222" transform="translate(0,0)"/>
<path d="" fill="#222222" transform="translate(0,0)"/>
<path d="" fill="#222321" transform="translate(0,0)"/>
<path d="" fill="#222122" transform="translate(0,0)"/>
<path d="" fill="#262726" transform="translate(0,0)"/>
<path d="" fill="#262524" transform="translate(0,0)"/>
<path d="" fill="#232123" transform="translate(0,0)"/>
<path d="" fill="#292925" transform="translate(0,0)"/>
<path d="" fill="#5A595B" transform="translate(0,0)"/>
<path d="" fill="#272628" transform="translate(0,0)"/>
<path d="" fill="#595A59" transform="translate(0,0)"/>
<path d="" fill="#282828" transform="translate(0,0)"/>
<path d="" fill="#575758" transform="translate(0,0)"/>
<path d="" fill="#2A2828" transform="translate(0,0)"/>
<path d="" fill="#111110" transform="translate(0,0)"/>
<path d="" fill="#131312" transform="translate(0,0)"/>
<path d="" fill="#131311" transform="translate(0,0)"/>
<path d="" fill="#151415" transform="translate(0,0)"/>
<path d="" fill="#151616" transform="translate(0,0)"/>
<path d="" fill="#181617" transform="translate(0,0)"/>
<path d="" fill="#1B1B1C" transform="translate(0,0)"/>
<path d="" fill="#11110F" transform="translate(0,0)"/>
<path d="" fill="#121011" transform="translate(0,0)"/>
<path d="" fill="#0F110F" transform="translate(0,0)"/>
<path d="" fill="#555556" transform="translate(0,0)"/>
<path d="" fill="#201F1F" transform="translate(0,0)"/>
<path d="" fill="#10100F" transform="translate(0,0)"/>
<path d="" fill="#1F1E20" transform="translate(0,0)"/>
<path d="" fill="#1F2120" transform="translate(0,0)"/>
<path d="" fill="#2C2A2B" transform="translate(0,0)"/>
<path d="" fill="#131212" transform="translate(0,0)"/>
<path d="" fill="#121213" transform="translate(0,0)"/>
<path d="" fill="#121110" transform="translate(0,0)"/>
<path d="" fill="#292A28" transform="translate(0,0)"/>
<path d="" fill="#272628" transform="translate(0,0)"/>
<path d="" fill="#1E2021" transform="translate(0,0)"/>
<path d="" fill="#1E1D1D" transform="translate(0,0)"/>
<path d="" fill="#111010" transform="translate(0,0)"/>
<path d="" fill="#0F1111" transform="translate(0,0)"/>
<path d="" fill="#1C1D1B" transform="translate(0,0)"/>
<path d="" fill="#121010" transform="translate(0,0)"/>
<path d="" fill="#121111" transform="translate(0,0)"/>
<path d="" fill="#1C1F1F" transform="translate(0,0)"/>
<path d="" fill="#0F1211" transform="translate(0,0)"/>
<path d="" fill="#151414" transform="translate(0,0)"/>
<path d="" fill="#131211" transform="translate(0,0)"/>
<path d="" fill="#111012" transform="translate(0,0)"/>
<path d="" fill="#101211" transform="translate(0,0)"/>
<path d="" fill="#131010" transform="translate(0,0)"/>
<path d="" fill="#141313" transform="translate(0,0)"/>
<path d="" fill="#100F10" transform="translate(0,0)"/>
<path d="" fill="#100F10" transform="translate(0,0)"/>
<path d="" fill="#141514" transform="translate(0,0)"/>
<path d="" fill="#242725" transform="translate(0,0)"/>
<path d="" fill="#262525" transform="translate(0,0)"/>
<path d="" fill="#242324" transform="translate(0,0)"/>
<path d="" fill="#181617" transform="translate(0,0)"/>
<path d="" fill="#202320" transform="translate(0,0)"/>
<path d="" fill="#222424" transform="translate(0,0)"/>
<path d="" fill="#221E21" transform="translate(0,0)"/>
<path d="" fill="#222524" transform="translate(0,0)"/>
<path d="" fill="#252324" transform="translate(0,0)"/>
<path d="" fill="#202020" transform="translate(0,0)"/>
<path d="" fill="#252426" transform="translate(0,0)"/>
<path d="" fill="#222122" transform="translate(0,0)"/>
<path d="" fill="#222223" transform="translate(0,0)"/>
<path d="" fill="#201F20" transform="translate(0,0)"/>
<path d="" fill="#1D2021" transform="translate(0,0)"/>
<path d="" fill="#232322" transform="translate(0,0)"/>
<path d="" fill="#1F2020" transform="translate(0,0)"/>
<path d="" fill="#202021" transform="translate(0,0)"/>
<path d="" fill="#202223" transform="translate(0,0)"/>
<path d="" fill="#211F20" transform="translate(0,0)"/>
<path d="" fill="#211F1F" transform="translate(0,0)"/>
<path d="" fill="#22201D" transform="translate(0,0)"/>
<path d="" fill="#222123" transform="translate(0,0)"/>
<path d="" fill="#202020" transform="translate(0,0)"/>
<path d="" fill="#11100F" transform="translate(0,0)"/>
<path d="" fill="#212121" transform="translate(0,0)"/>
<path d="" fill="#211E21" transform="translate(0,0)"/>
<path d="" fill="#1D201C" transform="translate(0,0)"/>
<path d="" fill="#232120" transform="translate(0,0)"/>
<path d="" fill="#1E2121" transform="translate(0,0)"/>
<path d="" fill="#222320" transform="translate(0,0)"/>
<path d="" fill="#202021" transform="translate(0,0)"/>
<path d="" fill="#202021" transform="translate(0,0)"/>
<path d="" fill="#1E1D1F" transform="translate(0,0)"/>
<path d="" fill="#222021" transform="translate(0,0)"/>
<path d="" fill="#211E20" transform="translate(0,0)"/>
<path d="" fill="#1F2224" transform="translate(0,0)"/>
<path d="" fill="#1F1C1F" transform="translate(0,0)"/>
<path d="" fill="#1F1E1E" transform="translate(0,0)"/>
<path d="" fill="#232321" transform="translate(0,0)"/>
<path d="" fill="#1F1D1F" transform="translate(0,0)"/>
<path d="" fill="#1F1E1F" transform="translate(0,0)"/>
<path d="" fill="#221E1E" transform="translate(0,0)"/>
<path d="" fill="#1E1C1F" transform="translate(0,0)"/>
<path d="" fill="#1C1E1F" transform="translate(0,0)"/>
<path d="" fill="#2B2B2A" transform="translate(0,0)"/>
<path d="" fill="#20211E" transform="translate(0,0)"/>
<path d="" fill="#1B1F1C" transform="translate(0,0)"/>
<path d="" fill="#1E1F21" transform="translate(0,0)"/>
<path d="" fill="#1D1B1D" transform="translate(0,0)"/>
<path d="" fill="#1F1F1D" transform="translate(0,0)"/>
<path d="" fill="#1D1D20" transform="translate(0,0)"/>
<path d="" fill="#211F1F" transform="translate(0,0)"/>
<path d="" fill="#1E1D1E" transform="translate(0,0)"/>
<path d="" fill="#201D1C" transform="translate(0,0)"/>
<path d="" fill="#1F2020" transform="translate(0,0)"/>
<path d="" fill="#1E1E1D" transform="translate(0,0)"/>
<path d="" fill="#1F1E1F" transform="translate(0,0)"/>
<path d="" fill="#1D1C1A" transform="translate(0,0)"/>
<path d="" fill="#1E1E1F" transform="translate(0,0)"/>
<path d="" fill="#1E1D1F" transform="translate(0,0)"/>
<path d="" fill="#1D1B1A" transform="translate(0,0)"/>
<path d="" fill="#201F1F" transform="translate(0,0)"/>
<path d="" fill="#1D1E1A" transform="translate(0,0)"/>
<path d="" fill="#1D1A1D" transform="translate(0,0)"/>
<path d="" fill="#1D1C1E" transform="translate(0,0)"/>
<path d="" fill="#1B1C1D" transform="translate(0,0)"/>
<path d="" fill="#1D1C1C" transform="translate(0,0)"/>
<path d="" fill="#1A1A1C" transform="translate(0,0)"/>
<path d="" fill="#1C1B1B" transform="translate(0,0)"/>
<path d="" fill="#1F1E21" transform="translate(0,0)"/>
<path d="" fill="#1C1D1B" transform="translate(0,0)"/>
<path d="" fill="#1B1A1C" transform="translate(0,0)"/>
<path d="" fill="#1C1B1C" transform="translate(0,0)"/>
<path d="" fill="#1C1A19" transform="translate(0,0)"/>
<path d="" fill="#29292A" transform="translate(0,0)"/>
<path d="" fill="#181817" transform="translate(0,0)"/>
<path d="" fill="#1C1A1B" transform="translate(0,0)"/>
<path d="" fill="#1C1B1B" transform="translate(0,0)"/>
<path d="" fill="#1E1D1D" transform="translate(0,0)"/>
<path d="" fill="#1A1C1B" transform="translate(0,0)"/>
<path d="" fill="#1F2020" transform="translate(0,0)"/>
<path d="" fill="#1E1F1F" transform="translate(0,0)"/>
<path d="" fill="#181B17" transform="translate(0,0)"/>
<path d="" fill="#1E1C1F" transform="translate(0,0)"/>
<path d="" fill="#1B1A19" transform="translate(0,0)"/>
<path d="" fill="#1F1E1E" transform="translate(0,0)"/>
<path d="" fill="#1F2020" transform="translate(0,0)"/>
<path d="" fill="#1A1B18" transform="translate(0,0)"/>
<path d="" fill="#1D191C" transform="translate(0,0)"/>
<path d="" fill="#1D1C1E" transform="translate(0,0)"/>
<path d="" fill="#1E1E1F" transform="translate(0,0)"/>
<path d="" fill="#1C1F1E" transform="translate(0,0)"/>
<path d="" fill="#1E1D1C" transform="translate(0,0)"/>
<path d="" fill="#1D1D1E" transform="translate(0,0)"/>
<path d="" fill="#202021" transform="translate(0,0)"/>
<path d="" fill="#1D1B1B" transform="translate(0,0)"/>
<path d="" fill="#1D1D1C" transform="translate(0,0)"/>
<path d="" fill="#110F11" transform="translate(0,0)"/>
<path d="" fill="#1C1C1A" transform="translate(0,0)"/>
<path d="" fill="#1A1B1C" transform="translate(0,0)"/>
<path d="" fill="#1C1D1C" transform="translate(0,0)"/>
<path d="" fill="#1E1F1F" transform="translate(0,0)"/>
<path d="" fill="#1E1F22" transform="translate(0,0)"/>
<path d="" fill="#202120" transform="translate(0,0)"/>
<path d="" fill="#201F1F" transform="translate(0,0)"/>
<path d="" fill="#222022" transform="translate(0,0)"/>
<path d="" fill="#222221" transform="translate(0,0)"/>
<path d="" fill="#1E1F21" transform="translate(0,0)"/>
<path d="" fill="#1C1F21" transform="translate(0,0)"/>
<path d="" fill="#201F1E" transform="translate(0,0)"/>
<path d="" fill="#201C1C" transform="translate(0,0)"/>
<path d="" fill="#201E22" transform="translate(0,0)"/>
<path d="" fill="#1F1C1D" transform="translate(0,0)"/>
<path d="" fill="#1E1C1E" transform="translate(0,0)"/>
<path d="" fill="#201C20" transform="translate(0,0)"/>
<path d="" fill="#212121" transform="translate(0,0)"/>
<path d="" fill="#1E1E21" transform="translate(0,0)"/>
<path d="" fill="#1D1D1D" transform="translate(0,0)"/>
<path d="" fill="#1B1A1D" transform="translate(0,0)"/>
<path d="" fill="#1C1D1E" transform="translate(0,0)"/>
<path d="" fill="#201B1D" transform="translate(0,0)"/>
<path d="" fill="#0E1010" transform="translate(0,0)"/>
<path d="" fill="#10100F" transform="translate(0,0)"/>
<path d="" fill="#1D1D1C" transform="translate(0,0)"/>
<path d="" fill="#1B1C1D" transform="translate(0,0)"/>
<path d="" fill="#1E201E" transform="translate(0,0)"/>
<path d="" fill="#525352" transform="translate(0,0)"/>
<path d="" fill="#1F1E1F" transform="translate(0,0)"/>
<path d="" fill="#1C1C1D" transform="translate(0,0)"/>
<path d="" fill="#1E1D1D" transform="translate(0,0)"/>
<path d="" fill="#201E1D" transform="translate(0,0)"/>
<path d="" fill="#1F1D1E" transform="translate(0,0)"/>
<path d="" fill="#1F1E1D" transform="translate(0,0)"/>
<path d="" fill="#1F1F1E" transform="translate(0,0)"/>
<path d="" fill="#202020" transform="translate(0,0)"/>
<path d="" fill="#1F2021" transform="translate(0,0)"/>
<path d="" fill="#1F201E" transform="translate(0,0)"/>
<path d="" fill="#1F1D1D" transform="translate(0,0)"/>
<path d="" fill="#1F1F1F" transform="translate(0,0)"/>
<path d="" fill="#1F1E23" transform="translate(0,0)"/>
<path d="" fill="#1E1D1D" transform="translate(0,0)"/>
<path d="" fill="#0F0F0E" transform="translate(0,0)"/>
<path d="" fill="#292B2A" transform="translate(0,0)"/>
<path d="" fill="#211F1E" transform="translate(0,0)"/>
<path d="" fill="#1F201F" transform="translate(0,0)"/>
<path d="" fill="#1A1C1C" transform="translate(0,0)"/>
<path d="" fill="#1E1E20" transform="translate(0,0)"/>
<path d="" fill="#1A1B1B" transform="translate(0,0)"/>
<path d="" fill="#1D1E1E" transform="translate(0,0)"/>
<path d="" fill="#1F201E" transform="translate(0,0)"/>
<path d="" fill="#1F1F1F" transform="translate(0,0)"/>
<path d="" fill="#201E1E" transform="translate(0,0)"/>
<path d="" fill="#1F1E1F" transform="translate(0,0)"/>
<path d="" fill="#1F1F1E" transform="translate(0,0)"/>
<path d="" fill="#10110E" transform="translate(0,0)"/>
<path d="" fill="#11100F" transform="translate(0,0)"/>
<path d="" fill="#262628" transform="translate(0,0)"/>
<path d="" fill="#1B1E1D" transform="translate(0,0)"/>
<path d="" fill="#1F1D1F" transform="translate(0,0)"/>
<path d="" fill="#1A1A1D" transform="translate(0,0)"/>
<path d="" fill="#1F1F1E" transform="translate(0,0)"/>
<path d="" fill="#111110" transform="translate(0,0)"/>
<path d="" fill="#1C1D1C" transform="translate(0,0)"/>
<path d="" fill="#1D1D1E" transform="translate(0,0)"/>
<path d="" fill="#1D1C1E" transform="translate(0,0)"/>
<path d="" fill="#212121" transform="translate(0,0)"/>
<path d="" fill="#0D0E0D" transform="translate(0,0)"/>
<path d="" fill="#212022" transform="translate(0,0)"/>
<path d="" fill="#282825" transform="translate(0,0)"/>
<path d="" fill="#2A272A" transform="translate(0,0)"/>
<path d="" fill="#100F0F" transform="translate(0,0)"/>
<path d="" fill="#121111" transform="translate(0,0)"/>
<path d="" fill="#111110" transform="translate(0,0)"/>
<path d="" fill="#141516" transform="translate(0,0)"/>
<path d="" fill="#111111" transform="translate(0,0)"/>
<path d="" fill="#111212" transform="translate(0,0)"/>
<path d="" fill="#0F1313" transform="translate(0,0)"/>
<path d="" fill="#141212" transform="translate(0,0)"/>
<path d="" fill="#0F1113" transform="translate(0,0)"/>
<path d="" fill="#1E231E" transform="translate(0,0)"/>
<path d="" fill="#141312" transform="translate(0,0)"/>
<path d="" fill="#121212" transform="translate(0,0)"/>
<path d="" fill="#121112" transform="translate(0,0)"/>
<path d="" fill="#141312" transform="translate(0,0)"/>
<path d="" fill="#131411" transform="translate(0,0)"/>
<path d="" fill="#151313" transform="translate(0,0)"/>
<path d="" fill="#121214" transform="translate(0,0)"/>
<path d="" fill="#111314" transform="translate(0,0)"/>
<path d="" fill="#181A1A" transform="translate(0,0)"/>
<path d="" fill="#131514" transform="translate(0,0)"/>
<path d="" fill="#100E12" transform="translate(0,0)"/>
<path d="" fill="#121314" transform="translate(0,0)"/>
<path d="" fill="#121012" transform="translate(0,0)"/>
<path d="" fill="#252524" transform="translate(0,0)"/>
<path d="" fill="#1B1B1B" transform="translate(0,0)"/>
<path d="" fill="#1B1A19" transform="translate(0,0)"/>
<path d="" fill="#1A1A18" transform="translate(0,0)"/>
<path d="" fill="#1B1A1A" transform="translate(0,0)"/>
<path d="" fill="#1A1B1A" transform="translate(0,0)"/>
<path d="" fill="#191A18" transform="translate(0,0)"/>
<path d="" fill="#1D1C1B" transform="translate(0,0)"/>
<path d="" fill="#1C1C1A" transform="translate(0,0)"/>
<path d="" fill="#1D1C1B" transform="translate(0,0)"/>
<path d="" fill="#1C1E1C" transform="translate(0,0)"/>
<path d="" fill="#1B1B1A" transform="translate(0,0)"/>
<path d="" fill="#0E1211" transform="translate(0,0)"/>
<path d="" fill="#242323" transform="translate(0,0)"/>
<path d="" fill="#1F1F1D" transform="translate(0,0)"/>
<path d="" fill="#181818" transform="translate(0,0)"/>
<path d="" fill="#1C191A" transform="translate(0,0)"/>
<path d="" fill="#1A1919" transform="translate(0,0)"/>
<path d="" fill="#191919" transform="translate(0,0)"/>
<path d="" fill="#191819" transform="translate(0,0)"/>
<path d="" fill="#151516" transform="translate(0,0)"/>
<path d="" fill="#141312" transform="translate(0,0)"/>
<path d="" fill="#191918" transform="translate(0,0)"/>
<path d="" fill="#131211" transform="translate(0,0)"/>
<path d="" fill="#1B1C1B" transform="translate(0,0)"/>
<path d="" fill="#242525" transform="translate(0,0)"/>
<path d="" fill="#252626" transform="translate(0,0)"/>
<path d="" fill="#101011" transform="translate(0,0)"/>
<path d="" fill="#151717" transform="translate(0,0)"/>
<path d="" fill="#191A19" transform="translate(0,0)"/>
<path d="" fill="#1A1A1A" transform="translate(0,0)"/>
<path d="" fill="#171617" transform="translate(0,0)"/>
<path d="" fill="#0F0E10" transform="translate(0,0)"/>
<path d="" fill="#161515" transform="translate(0,0)"/>
<path d="" fill="#0F1213" transform="translate(0,0)"/>
<path d="" fill="#121112" transform="translate(0,0)"/>
<path d="" fill="#141414" transform="translate(0,0)"/>
<path d="" fill="#1C1A1A" transform="translate(0,0)"/>
<path d="" fill="#131213" transform="translate(0,0)"/>
<path d="" fill="#101412" transform="translate(0,0)"/>
<path d="" fill="#121413" transform="translate(0,0)"/>
<path d="" fill="#121313" transform="translate(0,0)"/>
<path d="" fill="#0E1110" transform="translate(0,0)"/>
<path d="" fill="#141314" transform="translate(0,0)"/>
<path d="" fill="#101112" transform="translate(0,0)"/>
<path d="" fill="#121210" transform="translate(0,0)"/>
<path d="" fill="#121211" transform="translate(0,0)"/>
<path d="" fill="#121212" transform="translate(0,0)"/>
<path d="" fill="#101110" transform="translate(0,0)"/>
<path d="" fill="#101110" transform="translate(0,0)"/>
<path d="" fill="#121111" transform="translate(0,0)"/>
<path d="" fill="#130F10" transform="translate(0,0)"/>
<path d="" fill="#12110F" transform="translate(0,0)"/>
<path d="" fill="#11100E" transform="translate(0,0)"/>
<path d="" fill="#121010" transform="translate(0,0)"/>
<path d="" fill="#1B1C1B" transform="translate(0,0)"/>
<path d="" fill="#1A1A18" transform="translate(0,0)"/>
<path d="" fill="#121211" transform="translate(0,0)"/>
<path d="" fill="#111113" transform="translate(0,0)"/>
<path d="" fill="#111011" transform="translate(0,0)"/>
<path d="" fill="#0F100F" transform="translate(0,0)"/>
<path d="" fill="#121010" transform="translate(0,0)"/>
<path d="" fill="#121113" transform="translate(0,0)"/>
<path d="" fill="#141514" transform="translate(0,0)"/>
<path d="" fill="#131212" transform="translate(0,0)"/>
<path d="" fill="#10100F" transform="translate(0,0)"/>
<path d="" fill="#131312" transform="translate(0,0)"/>
<path d="" fill="#121110" transform="translate(0,0)"/>
<path d="" fill="#10100E" transform="translate(0,0)"/>
<path d="" fill="#141314" transform="translate(0,0)"/>
<path d="" fill="#141514" transform="translate(0,0)"/>
<path d="" fill="#222322" transform="translate(0,0)"/>
<path d="" fill="#10100F" transform="translate(0,0)"/>
<path d="" fill="#0F110F" transform="translate(0,0)"/>
<path d="" fill="#111314" transform="translate(0,0)"/>
<path d="" fill="#131112" transform="translate(0,0)"/>
<path d="" fill="#0D0E0D" transform="translate(0,0)"/>
<path d="" fill="#121213" transform="translate(0,0)"/>
<path d="" fill="#121111" transform="translate(0,0)"/>
<path d="" fill="#141214" transform="translate(0,0)"/>
<path d="" fill="#141313" transform="translate(0,0)"/>
<path d="" fill="#131112" transform="translate(0,0)"/>
<path d="" fill="#171517" transform="translate(0,0)"/>
<path d="" fill="#151414" transform="translate(0,0)"/>
<path d="" fill="#121412" transform="translate(0,0)"/>
<path d="" fill="#131213" transform="translate(0,0)"/>
<path d="" fill="#111311" transform="translate(0,0)"/>
<path d="" fill="#131312" transform="translate(0,0)"/>
<path d="" fill="#131112" transform="translate(0,0)"/>
<path d="" fill="#111312" transform="translate(0,0)"/>
<path d="" fill="#100F10" transform="translate(0,0)"/>
<path d="" fill="#121412" transform="translate(0,0)"/>
<path d="" fill="#575858" transform="translate(0,0)"/>
<path d="" fill="#111111" transform="translate(0,0)"/>
<path d="" fill="#141214" transform="translate(0,0)"/>
<path d="" fill="#100F0F" transform="translate(0,0)"/>
<path d="" fill="#1C1C1B" transform="translate(0,0)"/>
<path d="" fill="#121013" transform="translate(0,0)"/>
<path d="" fill="#1B1B1C" transform="translate(0,0)"/>
<path d="" fill="#131314" transform="translate(0,0)"/>
<path d="" fill="#111111" transform="translate(0,0)"/>
<path d="" fill="#0E0E0D" transform="translate(0,0)"/>
<path d="" fill="#141513" transform="translate(0,0)"/>
<path d="" fill="#111010" transform="translate(0,0)"/>
<path d="" fill="#0F100F" transform="translate(0,0)"/>
<path d="" fill="#151514" transform="translate(0,0)"/>
<path d="" fill="#161416" transform="translate(0,0)"/>
<path d="" fill="#0F100F" transform="translate(0,0)"/>
<path d="" fill="#151314" transform="translate(0,0)"/>
<path d="" fill="#131212" transform="translate(0,0)"/>
<path d="" fill="#0E100E" transform="translate(0,0)"/>
<path d="" fill="#100F10" transform="translate(0,0)"/>
<path d="" fill="#121312" transform="translate(0,0)"/>
<path d="" fill="#0E120F" transform="translate(0,0)"/>
<path d="" fill="#141413" transform="translate(0,0)"/>
<path d="" fill="#12110E" transform="translate(0,0)"/>
<path d="" fill="#111410" transform="translate(0,0)"/>
<path d="" fill="#110F11" transform="translate(0,0)"/>
<path d="" fill="#111110" transform="translate(0,0)"/>
<path d="" fill="#151515" transform="translate(0,0)"/>
<path d="" fill="#10110F" transform="translate(0,0)"/>
<path d="" fill="#131512" transform="translate(0,0)"/>
<path d="" fill="#181717" transform="translate(0,0)"/>
<path d="" fill="#141513" transform="translate(0,0)"/>
<path d="" fill="#121111" transform="translate(0,0)"/>
<path d="" fill="#0B0D0D" transform="translate(0,0)"/>
<path d="" fill="#151414" transform="translate(0,0)"/>
<path d="" fill="#121314" transform="translate(0,0)"/>
<path d="" fill="#141314" transform="translate(0,0)"/>
<path d="" fill="#0E0C0E" transform="translate(0,0)"/>
<path d="" fill="#121111" transform="translate(0,0)"/>
<path d="" fill="#1E1E1D" transform="translate(0,0)"/>
<path d="" fill="#161314" transform="translate(0,0)"/>
<path d="" fill="#151715" transform="translate(0,0)"/>
<path d="" fill="#131112" transform="translate(0,0)"/>
<path d="" fill="#141315" transform="translate(0,0)"/>
<path d="" fill="#121312" transform="translate(0,0)"/>
<path d="" fill="#121312" transform="translate(0,0)"/>
<path d="" fill="#141311" transform="translate(0,0)"/>
<path d="" fill="#171414" transform="translate(0,0)"/>
<path d="" fill="#121313" transform="translate(0,0)"/>
<path d="" fill="#151414" transform="translate(0,0)"/>
<path d="" fill="#121113" transform="translate(0,0)"/>
<path d="" fill="#141514" transform="translate(0,0)"/>
<path d="" fill="#131211" transform="translate(0,0)"/>
<path d="" fill="#191B19" transform="translate(0,0)"/>
<path d="" fill="#1F1D1F" transform="translate(0,0)"/>
<path d="" fill="#1C1E1F" transform="translate(0,0)"/>
<path d="" fill="#212120" transform="translate(0,0)"/>
<path d="" fill="#1B1A1C" transform="translate(0,0)"/>
<path d="" fill="#1B1B1D" transform="translate(0,0)"/>
<path d="" fill="#1C1B1A" transform="translate(0,0)"/>
<path d="" fill="#1F201F" transform="translate(0,0)"/>
<path d="" fill="#1F1E1F" transform="translate(0,0)"/>
<path d="" fill="#1E1F1E" transform="translate(0,0)"/>
<path d="" fill="#202421" transform="translate(0,0)"/>
<path d="" fill="#232324" transform="translate(0,0)"/>
<path d="" fill="#232423" transform="translate(0,0)"/>
<path d="" fill="#232222" transform="translate(0,0)"/>
<path d="" fill="#232324" transform="translate(0,0)"/>
<path d="" fill="#212121" transform="translate(0,0)"/>
<path d="" fill="#212121" transform="translate(0,0)"/>
<path d="" fill="#202121" transform="translate(0,0)"/>
<path d="" fill="#1F2021" transform="translate(0,0)"/>
<path d="" fill="#222121" transform="translate(0,0)"/>
<path d="" fill="#222121" transform="translate(0,0)"/>
<path d="" fill="#222122" transform="translate(0,0)"/>
<path d="" fill="#222022" transform="translate(0,0)"/>
<path d="" fill="#232322" transform="translate(0,0)"/>
<path d="" fill="#232321" transform="translate(0,0)"/>
<path d="" fill="#222522" transform="translate(0,0)"/>
<path d="" fill="#202123" transform="translate(0,0)"/>
<path d="" fill="#1E1D1C" transform="translate(0,0)"/>
<path d="" fill="#201F1C" transform="translate(0,0)"/>
<path d="" fill="#171718" transform="translate(0,0)"/>
<path d="" fill="#1A1B1B" transform="translate(0,0)"/>
<path d="" fill="#212021" transform="translate(0,0)"/>
<path d="" fill="#595657" transform="translate(0,0)"/>
<path d="" fill="#212123" transform="translate(0,0)"/>
<path d="" fill="#222320" transform="translate(0,0)"/>
<path d="" fill="#222423" transform="translate(0,0)"/>
<path d="" fill="#222222" transform="translate(0,0)"/>
<path d="" fill="#4A4A4B" transform="translate(0,0)"/>
<path d="" fill="#222021" transform="translate(0,0)"/>
<path d="" fill="#242425" transform="translate(0,0)"/>
<path d="" fill="#272625" transform="translate(0,0)"/>
<path d="" fill="#272628" transform="translate(0,0)"/>
<path d="" fill="#242224" transform="translate(0,0)"/>
<path d="" fill="#313235" transform="translate(0,0)"/>
<path d="" fill="#434645" transform="translate(0,0)"/>
<path d="" fill="#585959" transform="translate(0,0)"/>
<path d="" fill="#5F6061" transform="translate(0,0)"/>
<path d="" fill="#616365" transform="translate(0,0)"/>
<path d="" fill="#626362" transform="translate(0,0)"/>
<path d="" fill="#5D5E5F" transform="translate(0,0)"/>
<path d="" fill="#606061" transform="translate(0,0)"/>
<path d="" fill="#616262" transform="translate(0,0)"/>
<path d="" fill="#616060" transform="translate(0,0)"/>
<path d="" fill="#5F5E5E" transform="translate(0,0)"/>
<path d="" fill="#606362" transform="translate(0,0)"/>
<path d="" fill="#5C5C5C" transform="translate(0,0)"/>
<path d="" fill="#5D5B5E" transform="translate(0,0)"/>
<path d="" fill="#605F5F" transform="translate(0,0)"/>
<path d="" fill="#616161" transform="translate(0,0)"/>
<path d="" fill="#5D6060" transform="translate(0,0)"/>
<path d="" fill="#5F6061" transform="translate(0,0)"/>
<path d="" fill="#605F60" transform="translate(0,0)"/>
<path d="" fill="#605F61" transform="translate(0,0)"/>
</svg>
